<svg id="svg" version="1.1" xmlns="http://www.w3.org/2000/svg" xmlns:xlink="http://www.w3.org/1999/xlink" width="400" height="400" viewBox="0, 0, 400,400"><g id="svgg"><path id="path0" d="M214.033 46.797 C 213.803 47.098,213.739 47.238,213.891 47.109 C 214.043 46.979,214.461 47.120,214.818 47.421 C 215.459 47.961,215.461 47.959,214.921 47.318 C 214.620 46.961,214.468 46.574,214.583 46.459 C 214.698 46.344,214.715 46.250,214.622 46.250 C 214.528 46.250,214.263 46.496,214.033 46.797 M158.616 48.402 C 158.227 49.031,159.271 49.383,159.798 48.801 C 160.222 48.332,160.234 48.229,159.862 48.229 C 159.613 48.229,159.437 48.311,159.470 48.411 C 159.504 48.512,159.391 48.629,159.219 48.672 C 159.047 48.715,158.941 48.609,158.984 48.438 C 159.081 48.051,158.847 48.028,158.616 48.402 M215.778 48.755 C 215.670 48.930,215.451 48.992,215.291 48.893 C 214.821 48.602,214.958 48.951,215.486 49.390 C 215.758 49.615,215.931 49.646,215.877 49.459 C 215.824 49.275,215.922 49.125,216.094 49.125 C 216.266 49.125,216.379 49.228,216.345 49.354 C 216.312 49.480,216.488 49.583,216.737 49.583 C 217.109 49.583,217.097 49.480,216.672 49.010 C 216.068 48.344,216.038 48.335,215.778 48.755 M167.341 49.068 C 167.233 49.242,167.023 49.310,166.875 49.219 C 166.727 49.127,166.503 49.230,166.378 49.448 C 166.252 49.666,166.267 49.737,166.411 49.607 C 166.555 49.476,167.030 49.687,167.467 50.075 C 167.905 50.464,168.109 50.570,167.921 50.313 C 167.734 50.055,167.620 49.598,167.669 49.297 C 167.768 48.684,167.635 48.591,167.341 49.068 M237.370 49.609 C 237.241 49.738,236.985 49.844,236.801 49.844 C 236.616 49.844,236.428 50.102,236.382 50.418 C 236.304 50.946,236.341 50.952,236.846 50.495 C 237.148 50.222,237.465 50.069,237.551 50.156 C 237.638 50.242,237.708 50.102,237.708 49.844 C 237.708 49.305,237.688 49.291,237.370 49.609 M186.404 50.258 C 186.488 50.342,186.411 50.587,186.232 50.803 C 186.006 51.075,186.010 51.258,186.243 51.402 C 186.427 51.516,186.539 51.423,186.492 51.195 C 186.445 50.967,186.559 50.809,186.745 50.842 C 186.931 50.875,187.083 50.723,187.083 50.503 C 187.083 50.284,186.896 50.104,186.667 50.104 C 186.438 50.104,186.319 50.173,186.404 50.258 M170.916 53.519 C 171.204 53.899,171.448 53.974,171.705 53.761 C 171.955 53.554,172.219 53.579,172.508 53.836 C 172.872 54.160,172.874 54.134,172.522 53.668 C 172.234 53.288,171.989 53.213,171.732 53.426 C 171.483 53.633,171.218 53.609,170.930 53.352 C 170.565 53.028,170.563 53.054,170.916 53.519 M268.854 55.451 C 268.854 55.700,269.007 55.875,269.193 55.842 C 269.379 55.809,269.504 55.934,269.470 56.120 C 269.437 56.306,269.615 56.458,269.867 56.458 C 270.202 56.458,270.142 56.265,269.639 55.729 C 268.830 54.869,268.854 54.877,268.854 55.451 M180.980 56.668 C 180.713 56.989,180.831 57.261,181.486 57.840 C 182.067 58.353,182.178 58.394,181.834 57.969 C 181.555 57.625,181.368 57.098,181.418 56.797 C 181.525 56.141,181.438 56.115,180.980 56.668 M223.875 57.624 C 223.875 58.014,224.056 58.333,224.276 58.333 C 224.548 58.333,224.579 58.215,224.373 57.966 C 224.205 57.764,224.146 57.520,224.242 57.424 C 224.338 57.329,224.295 57.175,224.146 57.083 C 223.997 56.991,223.875 57.234,223.875 57.624 M225.140 59.568 C 225.161 59.961,225.268 60.372,225.378 60.482 C 225.488 60.592,225.536 60.423,225.485 60.107 C 225.434 59.790,225.513 59.379,225.660 59.193 C 225.824 58.986,225.767 58.854,225.515 58.854 C 225.282 58.854,225.119 59.166,225.140 59.568 M180.940 59.846 C 181.387 60.385,180.922 60.684,180.341 60.232 C 179.903 59.890,179.894 59.908,180.264 60.381 C 180.496 60.676,180.847 60.887,181.046 60.849 C 181.244 60.812,181.379 60.934,181.345 61.120 C 181.312 61.306,181.464 61.458,181.684 61.458 C 181.904 61.458,182.083 61.279,182.083 61.059 C 182.083 60.839,181.931 60.687,181.745 60.720 C 181.559 60.754,181.421 60.488,181.439 60.130 C 181.458 59.772,181.284 59.479,181.054 59.479 C 180.768 59.479,180.732 59.596,180.940 59.846 M179.032 61.641 C 178.880 62.024,178.888 63.486,179.043 63.582 C 179.152 63.649,179.241 63.222,179.241 62.633 C 179.241 61.726,179.157 61.325,179.032 61.641 M95.104 69.219 C 95.104 69.438,95.296 69.589,95.529 69.554 C 96.136 69.465,96.187 68.980,95.599 68.893 C 95.327 68.853,95.104 69.000,95.104 69.219 M307.914 69.268 C 308.027 69.381,307.978 69.644,307.806 69.852 C 307.587 70.116,307.658 70.360,308.043 70.662 C 308.531 71.045,308.550 71.037,308.206 70.596 C 307.704 69.953,308.075 69.579,308.721 70.075 C 309.026 70.310,308.988 70.188,308.623 69.760 C 308.296 69.376,307.956 69.063,307.868 69.063 C 307.780 69.063,307.801 69.155,307.914 69.268 M92.789 69.766 C 92.625 70.300,92.588 70.954,92.729 70.813 C 92.829 70.712,93.087 70.777,93.303 70.955 C 93.580 71.185,93.763 71.161,93.929 70.875 C 94.057 70.651,94.048 70.573,93.907 70.700 C 93.582 70.995,92.761 70.336,92.991 69.965 C 93.085 69.812,93.083 69.688,92.987 69.688 C 92.891 69.688,92.802 69.723,92.789 69.766 M191.688 71.796 C 192.102 72.285,192.395 72.404,192.654 72.189 C 192.859 72.019,193.149 71.985,193.300 72.112 C 193.450 72.240,193.385 72.098,193.155 71.797 C 192.711 71.217,192.476 71.098,192.537 71.484 C 192.645 72.166,192.430 72.225,191.797 71.689 L 191.094 71.094 191.688 71.796 M73.440 72.965 C 73.228 73.221,72.939 73.360,72.799 73.273 C 72.658 73.186,72.461 73.248,72.360 73.411 C 71.940 74.090,72.778 73.983,73.447 73.272 C 73.845 72.847,74.094 72.500,73.999 72.500 C 73.904 72.500,73.653 72.709,73.440 72.965 M79.086 73.566 C 78.831 73.873,78.821 74.070,79.052 74.213 C 79.235 74.326,79.310 74.539,79.219 74.688 C 79.127 74.836,79.183 75.038,79.342 75.136 C 79.668 75.337,79.617 74.512,79.283 74.178 C 79.165 74.060,79.225 73.775,79.416 73.544 C 79.607 73.314,79.694 73.125,79.608 73.125 C 79.522 73.125,79.287 73.323,79.086 73.566 M328.787 73.984 C 328.886 74.614,328.701 74.725,328.203 74.335 C 327.707 73.946,327.696 73.957,328.088 74.457 C 328.537 75.029,329.569 74.629,329.197 74.027 C 328.988 73.689,328.736 73.663,328.787 73.984 M76.703 74.714 C 76.620 74.847,76.686 75.039,76.848 75.140 C 77.011 75.240,77.227 75.188,77.329 75.024 C 77.430 74.860,77.810 74.783,78.174 74.853 C 78.537 74.923,78.738 74.884,78.621 74.767 C 78.317 74.463,76.882 74.423,76.703 74.714 M172.947 75.348 C 172.871 75.470,173.056 75.530,173.358 75.481 C 174.047 75.370,174.747 75.902,174.480 76.334 C 174.360 76.527,174.431 76.565,174.654 76.427 C 174.918 76.264,174.934 76.078,174.705 75.803 C 174.527 75.587,174.445 75.347,174.524 75.268 C 174.602 75.189,174.311 75.125,173.876 75.125 C 173.441 75.125,173.023 75.225,172.947 75.348 M276.642 76.120 C 277.169 76.746,278.280 77.066,277.924 76.490 C 277.828 76.335,277.670 76.288,277.572 76.386 C 277.474 76.484,277.102 76.317,276.744 76.016 C 276.103 75.477,276.102 75.478,276.642 76.120 M216.279 76.461 C 216.392 77.108,216.208 77.232,215.703 76.847 C 215.402 76.618,215.569 76.882,216.074 77.434 C 216.579 77.986,217.058 78.438,217.138 78.438 C 217.219 78.438,217.054 78.182,216.771 77.871 C 216.406 77.467,216.355 77.207,216.594 76.969 C 216.833 76.730,216.829 76.571,216.582 76.418 C 216.391 76.300,216.255 76.319,216.279 76.461 M173.440 77.965 C 173.228 78.221,172.908 78.340,172.729 78.230 C 172.534 78.109,172.498 78.181,172.639 78.410 C 172.769 78.620,172.957 78.710,173.057 78.610 C 173.156 78.510,173.619 78.794,174.085 79.240 C 174.632 79.764,175.007 79.930,175.144 79.708 C 175.260 79.519,175.471 79.436,175.611 79.523 C 175.752 79.610,176.031 79.483,176.232 79.240 C 176.693 78.685,175.926 78.736,175.239 79.307 C 174.612 79.827,173.241 78.447,173.815 77.873 C 174.020 77.668,174.106 77.500,174.007 77.500 C 173.908 77.500,173.653 77.709,173.440 77.965 M60.685 78.463 C 60.738 78.707,60.629 78.879,60.443 78.845 C 60.257 78.812,60.104 78.972,60.104 79.201 C 60.104 79.673,60.782 79.655,61.266 79.171 C 61.488 78.949,61.433 78.719,61.089 78.434 C 60.671 78.087,60.605 78.091,60.685 78.463 M62.497 78.903 C 62.846 79.274,63.024 79.695,62.893 79.839 C 62.763 79.983,62.841 79.993,63.067 79.863 C 63.398 79.672,63.383 79.520,62.988 79.084 C 62.719 78.787,62.569 78.472,62.656 78.386 C 62.742 78.300,62.599 78.229,62.338 78.229 C 61.963 78.229,61.997 78.370,62.497 78.903 M224.168 79.141 C 223.780 79.762,223.790 80.208,224.192 80.208 C 224.396 80.208,224.563 79.880,224.563 79.479 C 224.563 78.644,224.507 78.597,224.168 79.141 M51.970 81.068 C 52.004 81.254,51.845 81.368,51.617 81.320 C 51.390 81.273,51.285 81.366,51.384 81.527 C 51.484 81.688,51.799 81.785,52.085 81.743 C 52.705 81.652,52.924 80.729,52.326 80.729 C 52.097 80.729,51.937 80.882,51.970 81.068 M290.340 82.936 C 290.045 83.291,290.053 83.374,290.373 83.327 C 290.805 83.264,291.083 82.854,290.852 82.623 C 290.776 82.547,290.546 82.688,290.340 82.936 M225.450 83.468 C 225.179 83.906,225.861 84.062,226.210 83.642 C 226.469 83.330,226.436 83.229,226.075 83.229 C 225.812 83.229,225.531 83.337,225.450 83.468 M48.882 84.274 C 49.002 85.089,49.563 85.344,49.563 84.583 C 49.563 84.182,49.396 83.854,49.192 83.854 C 48.988 83.854,48.848 84.043,48.882 84.274 M210.104 84.292 C 210.104 84.572,210.207 84.605,210.420 84.393 C 210.622 84.190,210.864 84.185,211.097 84.377 C 211.339 84.578,211.458 84.545,211.458 84.276 C 211.458 84.056,211.154 83.875,210.781 83.875 C 210.409 83.875,210.104 84.063,210.104 84.292 M289.643 84.143 C 289.836 84.336,290.224 84.528,290.506 84.569 C 290.885 84.624,290.928 84.553,290.669 84.294 C 290.476 84.101,290.088 83.910,289.806 83.869 C 289.427 83.813,289.385 83.885,289.643 84.143 M221.979 84.844 C 221.979 85.102,222.050 85.242,222.136 85.156 C 222.222 85.069,222.586 85.244,222.943 85.544 C 223.417 85.941,223.388 85.856,222.836 85.232 C 221.949 84.229,221.979 84.242,221.979 84.844 M52.180 85.993 C 52.375 86.228,52.377 86.490,52.185 86.722 C 51.983 86.966,52.024 87.083,52.313 87.083 C 52.819 87.083,52.778 86.376,52.247 85.934 C 51.980 85.712,51.961 85.729,52.180 85.993 M182.625 88.268 C 182.625 88.866,182.716 88.960,183.035 88.695 C 183.344 88.438,183.358 88.249,183.091 87.927 C 182.628 87.369,182.625 87.371,182.625 88.268 M189.690 89.840 C 189.478 90.096,189.158 90.215,188.979 90.105 C 188.785 89.985,188.748 90.056,188.886 90.279 C 189.049 90.543,189.235 90.559,189.510 90.330 C 189.725 90.152,189.970 90.075,190.055 90.159 C 190.139 90.243,190.208 90.102,190.208 89.844 C 190.208 89.263,190.170 89.262,189.690 89.840 M305.720 90.429 C 305.754 90.607,305.605 90.777,305.391 90.806 C 305.176 90.835,304.912 90.877,304.805 90.898 C 304.699 90.920,304.789 91.152,305.006 91.414 C 305.414 91.905,305.771 91.784,305.795 91.146 C 305.803 90.945,305.956 90.809,306.134 90.842 C 306.312 90.875,306.458 90.723,306.458 90.503 C 306.458 90.284,306.279 90.104,306.059 90.104 C 305.839 90.104,305.687 90.250,305.720 90.429 M57.625 91.953 C 57.501 92.168,57.518 92.236,57.663 92.105 C 57.807 91.974,58.357 92.255,58.885 92.730 L 59.844 93.594 58.926 92.578 C 57.874 91.415,57.921 91.437,57.625 91.953 M63.229 94.844 C 63.229 95.063,63.421 95.214,63.654 95.179 C 64.261 95.090,64.312 94.605,63.724 94.518 C 63.452 94.478,63.229 94.625,63.229 94.844 M84.841 94.693 C 84.733 94.867,84.523 94.935,84.375 94.844 C 84.227 94.752,84.025 94.808,83.926 94.967 C 83.828 95.127,83.994 95.218,84.295 95.169 C 84.597 95.120,85.055 95.238,85.313 95.431 C 85.709 95.727,85.721 95.704,85.393 95.284 C 85.180 95.010,85.098 94.694,85.211 94.581 C 85.324 94.468,85.331 94.375,85.227 94.375 C 85.122 94.375,84.949 94.518,84.841 94.693 M191.539 95.391 C 191.271 96.265,191.342 96.563,191.740 96.232 C 191.983 96.031,192.104 95.742,192.009 95.590 C 191.848 95.328,191.591 95.219,191.539 95.391 M278.468 96.061 C 278.007 96.552,277.883 96.882,278.109 97.022 C 278.298 97.138,278.433 97.118,278.408 96.976 C 278.301 96.356,278.469 96.200,278.878 96.539 C 279.188 96.796,279.381 96.805,279.527 96.570 C 279.641 96.385,279.618 96.255,279.476 96.279 C 278.846 96.389,278.702 96.215,279.063 95.781 C 279.685 95.031,279.239 95.241,278.468 96.061 M69.479 96.076 C 69.479 96.325,69.632 96.500,69.818 96.467 C 70.004 96.434,70.129 96.559,70.095 96.745 C 70.062 96.931,70.240 97.083,70.492 97.083 C 70.827 97.083,70.767 96.890,70.264 96.354 C 69.455 95.494,69.479 95.502,69.479 96.076 M322.939 99.922 C 323.481 100.562,323.414 100.776,322.711 100.654 C 322.569 100.630,322.543 100.754,322.651 100.930 C 322.907 101.344,322.978 101.334,323.398 100.829 C 323.666 100.505,323.584 100.269,323.046 99.813 L 322.344 99.219 322.939 99.922 M112.500 100.156 C 112.866 100.598,112.711 100.769,112.056 100.644 C 111.898 100.614,111.932 100.786,112.132 101.027 C 112.331 101.267,112.398 101.560,112.280 101.678 C 112.162 101.796,112.033 102.113,111.994 102.381 C 111.954 102.650,112.017 102.775,112.133 102.659 C 112.249 102.543,112.361 102.319,112.383 102.161 C 112.404 102.004,112.457 101.805,112.500 101.719 C 112.543 101.633,112.596 101.422,112.617 101.250 C 112.639 101.078,112.797 100.952,112.969 100.969 C 113.141 100.986,113.243 101.137,113.195 101.304 C 113.148 101.472,113.264 101.513,113.453 101.397 C 113.679 101.257,113.556 100.927,113.094 100.436 C 112.324 99.616,111.877 99.406,112.500 100.156 M304.666 104.870 C 304.467 105.110,304.203 105.243,304.079 105.167 C 303.955 105.090,303.854 105.209,303.854 105.430 C 303.854 105.652,304.034 105.833,304.253 105.833 C 304.473 105.833,304.625 105.687,304.592 105.509 C 304.559 105.331,304.695 105.178,304.896 105.170 C 305.096 105.163,305.365 105.052,305.492 104.925 C 305.619 104.797,305.900 104.839,306.115 105.018 C 306.387 105.244,306.570 105.240,306.714 105.007 C 306.828 104.823,306.806 104.692,306.664 104.717 C 306.522 104.741,306.336 104.734,306.250 104.701 C 305.575 104.438,304.971 104.502,304.666 104.870 M265.729 106.076 C 265.729 106.325,265.882 106.500,266.068 106.467 C 266.254 106.434,266.379 106.559,266.345 106.745 C 266.312 106.931,266.490 107.083,266.742 107.083 C 267.077 107.083,267.017 106.890,266.514 106.354 C 265.705 105.494,265.729 105.502,265.729 106.076 M127.171 111.022 C 127.763 111.663,128.312 112.188,128.391 112.188 C 128.470 112.188,128.280 111.906,127.969 111.563 C 127.454 110.993,127.535 110.788,128.226 110.908 C 128.368 110.933,128.387 110.797,128.269 110.606 C 128.116 110.358,127.958 110.355,127.719 110.594 C 127.480 110.832,127.198 110.775,126.739 110.393 C 126.384 110.098,126.578 110.381,127.171 111.022 M130.140 110.818 C 130.161 111.211,130.291 111.645,130.428 111.782 C 130.565 111.919,130.649 111.891,130.614 111.719 C 130.579 111.547,130.578 111.336,130.612 111.250 C 130.862 110.608,130.806 110.104,130.484 110.104 C 130.274 110.104,130.119 110.426,130.140 110.818 M208.854 111.753 C 208.854 111.973,209.007 112.125,209.193 112.092 C 209.379 112.059,209.504 112.184,209.470 112.370 C 209.437 112.556,209.613 112.708,209.862 112.708 C 210.250 112.708,210.248 112.634,209.844 112.188 C 209.585 111.902,209.444 111.597,209.531 111.511 C 209.617 111.425,209.500 111.354,209.271 111.354 C 209.042 111.354,208.854 111.534,208.854 111.753 M107.789 112.266 C 107.521 113.140,107.592 113.438,107.990 113.107 C 108.233 112.906,108.354 112.617,108.259 112.465 C 108.098 112.203,107.841 112.094,107.789 112.266 M111.100 113.430 C 110.793 113.770,110.443 113.987,110.323 113.913 C 110.203 113.838,110.104 113.959,110.104 114.180 C 110.104 114.402,110.292 114.583,110.521 114.583 C 110.750 114.583,110.867 114.513,110.781 114.426 C 110.511 114.157,111.629 113.129,111.965 113.337 C 112.148 113.450,112.189 113.380,112.061 113.173 C 111.770 112.703,111.755 112.707,111.100 113.430 M207.154 113.664 C 206.758 114.169,206.768 114.180,207.266 113.790 C 207.566 113.554,207.830 113.449,207.852 113.555 C 207.873 113.662,207.908 113.879,207.930 114.036 C 208.011 114.635,208.364 114.682,208.773 114.148 C 209.007 113.843,209.074 113.700,208.921 113.829 C 208.769 113.958,208.407 113.849,208.117 113.587 C 207.642 113.157,207.546 113.165,207.154 113.664 M120.759 113.813 C 120.630 114.036,120.642 114.112,120.786 113.982 C 120.930 113.851,121.405 114.062,121.842 114.450 C 122.280 114.839,122.467 114.932,122.259 114.659 C 122.051 114.385,121.985 114.034,122.112 113.877 C 122.240 113.721,122.216 113.698,122.060 113.825 C 121.904 113.953,121.600 113.911,121.385 113.732 C 121.108 113.502,120.925 113.526,120.759 113.813 M130.107 115.211 C 130.223 115.327,130.025 115.734,129.667 116.116 C 129.235 116.575,129.132 116.881,129.359 117.022 C 129.552 117.141,129.665 117.053,129.617 116.820 C 129.570 116.592,129.707 116.441,129.922 116.484 C 130.137 116.527,130.277 116.387,130.234 116.172 C 130.191 115.957,130.356 115.824,130.600 115.877 C 130.966 115.956,130.973 115.889,130.640 115.486 C 130.418 115.219,130.159 115.000,130.066 115.000 C 129.972 115.000,129.991 115.095,130.107 115.211 M192.461 115.781 C 192.439 115.867,192.402 116.043,192.378 116.172 C 192.354 116.301,192.230 116.570,192.103 116.769 C 191.896 117.095,192.039 117.114,193.085 116.899 C 193.149 116.886,193.045 116.686,192.853 116.456 C 192.662 116.225,192.598 115.944,192.711 115.831 C 192.824 115.718,192.823 115.625,192.708 115.625 C 192.594 115.625,192.482 115.695,192.461 115.781 M267.570 116.617 C 267.618 116.845,267.504 117.004,267.318 116.970 C 267.132 116.937,266.979 117.089,266.979 117.309 C 266.979 117.529,267.167 117.708,267.396 117.708 C 267.625 117.708,267.743 117.639,267.659 117.555 C 267.575 117.470,267.652 117.225,267.830 117.010 C 268.056 116.738,268.053 116.555,267.820 116.411 C 267.635 116.297,267.523 116.390,267.570 116.617 M190.868 117.943 C 190.987 118.129,191.086 118.375,191.089 118.490 C 191.103 119.092,191.438 118.932,191.438 118.323 C 191.438 117.928,191.261 117.604,191.045 117.604 C 190.829 117.604,190.750 117.757,190.868 117.943 M207.570 119.117 C 207.618 119.345,207.449 119.486,207.196 119.430 C 206.833 119.350,206.850 119.454,207.275 119.924 C 207.571 120.252,207.743 120.590,207.657 120.676 C 207.571 120.763,207.709 120.833,207.964 120.833 C 208.253 120.833,208.327 120.706,208.160 120.495 C 208.013 120.309,207.932 119.911,207.981 119.611 C 208.030 119.311,207.938 118.984,207.777 118.884 C 207.616 118.785,207.523 118.890,207.570 119.117 M143.768 120.178 C 143.969 120.420,144.267 120.535,144.431 120.434 C 144.795 120.209,144.525 119.902,143.880 119.808 C 143.503 119.752,143.480 119.831,143.768 120.178 M241.105 127.459 C 241.201 127.555,241.627 127.653,242.050 127.675 C 242.474 127.698,242.742 127.638,242.645 127.541 C 242.549 127.445,242.123 127.347,241.700 127.325 C 241.276 127.302,241.008 127.362,241.105 127.459 M216.664 128.516 C 216.527 128.730,216.396 129.012,216.372 129.141 C 216.348 129.270,216.311 129.463,216.289 129.570 C 216.268 129.676,216.058 129.604,215.823 129.409 C 215.495 129.137,215.295 129.183,214.963 129.606 C 214.571 130.106,214.582 130.117,215.078 129.727 C 215.576 129.337,215.761 129.448,215.662 130.078 C 215.642 130.207,215.801 130.277,216.016 130.234 C 216.230 130.191,216.379 130.309,216.345 130.495 C 216.312 130.681,216.464 130.833,216.684 130.833 C 216.904 130.833,217.083 130.654,217.083 130.434 C 217.083 130.214,217.001 130.044,216.901 130.054 C 216.320 130.117,216.221 129.942,216.589 129.500 C 216.979 129.029,217.264 128.125,217.022 128.125 C 216.961 128.125,216.800 128.301,216.664 128.516 M147.956 129.736 C 147.822 129.967,147.829 130.050,147.971 129.921 C 148.114 129.792,148.474 129.907,148.772 130.176 C 149.154 130.522,149.377 130.562,149.531 130.313 C 149.686 130.063,149.908 130.103,150.291 130.450 C 150.747 130.862,150.833 130.868,150.833 130.487 C 150.833 130.238,150.681 130.062,150.495 130.095 C 150.309 130.129,150.202 129.949,150.257 129.696 C 150.338 129.330,150.239 129.345,149.771 129.768 C 149.236 130.252,149.139 130.256,148.691 129.807 C 148.288 129.404,148.155 129.391,147.956 129.736 M209.479 131.146 C 209.479 131.375,209.548 131.493,209.633 131.409 C 209.717 131.325,210.010 131.430,210.284 131.643 C 210.713 131.978,210.728 131.963,210.393 131.534 C 210.180 131.260,210.075 130.967,210.159 130.883 C 210.243 130.798,210.125 130.729,209.896 130.729 C 209.667 130.729,209.479 130.917,209.479 131.146 M140.989 133.531 C 140.729 133.845,140.823 133.938,141.406 133.938 C 141.990 133.938,142.084 133.845,141.823 133.531 C 141.638 133.308,141.450 133.125,141.406 133.125 C 141.362 133.125,141.175 133.308,140.989 133.531 M192.947 135.590 C 193.041 135.742,192.909 136.040,192.653 136.253 C 192.241 136.595,192.071 136.484,192.133 135.911 C 192.144 135.811,191.973 135.729,191.753 135.729 C 191.534 135.729,191.354 135.909,191.354 136.128 C 191.354 136.348,191.507 136.500,191.693 136.467 C 191.879 136.434,191.985 136.617,191.927 136.875 C 191.860 137.179,192.104 137.081,192.621 136.595 C 193.304 135.954,193.459 135.313,192.932 135.313 C 192.846 135.313,192.853 135.437,192.947 135.590 M141.177 140.034 C 141.739 140.640,142.091 141.254,141.959 141.399 C 141.827 141.544,141.901 141.557,142.125 141.429 C 142.437 141.248,142.446 141.093,142.164 140.753 C 141.840 140.363,141.961 140.197,142.526 140.258 C 142.626 140.269,142.708 140.074,142.708 139.825 C 142.708 139.454,142.605 139.466,142.135 139.891 C 141.598 140.377,141.405 140.258,141.552 139.531 C 141.586 139.359,141.510 139.323,141.383 139.450 C 141.256 139.578,140.927 139.514,140.654 139.308 C 140.380 139.102,140.616 139.429,141.177 140.034 M234.264 140.073 C 234.359 140.228,234.516 140.276,234.612 140.180 C 234.847 139.945,235.655 140.636,235.479 140.921 C 235.403 141.045,235.547 141.146,235.801 141.146 C 236.152 141.146,236.111 140.986,235.625 140.469 C 235.013 139.817,233.907 139.496,234.264 140.073 M206.590 141.061 C 206.295 141.416,206.303 141.499,206.623 141.452 C 207.055 141.389,207.333 140.979,207.102 140.748 C 207.026 140.672,206.796 140.813,206.590 141.061 M231.533 141.797 C 231.303 142.098,231.237 142.240,231.388 142.112 C 231.538 141.985,231.837 142.027,232.053 142.205 C 232.325 142.431,232.508 142.428,232.652 142.195 C 232.766 142.010,232.673 141.898,232.445 141.945 C 232.217 141.993,232.066 141.855,232.109 141.641 C 232.217 141.100,232.026 141.152,231.533 141.797 M192.789 142.266 C 192.537 143.088,192.598 143.433,192.944 143.145 C 193.161 142.965,193.462 142.922,193.612 143.050 C 193.763 143.177,193.697 143.035,193.467 142.734 C 193.082 142.231,192.849 142.070,192.789 142.266 M225.778 142.505 C 225.670 142.680,225.474 142.756,225.343 142.675 C 225.212 142.594,225.104 142.709,225.104 142.930 C 225.104 143.152,225.292 143.333,225.521 143.333 C 225.750 143.333,225.868 143.264,225.784 143.180 C 225.700 143.095,225.787 142.838,225.978 142.607 C 226.170 142.376,226.247 142.188,226.150 142.188 C 226.054 142.188,225.886 142.330,225.778 142.505 M214.097 143.552 C 213.830 143.874,213.843 144.063,214.152 144.320 C 214.472 144.585,214.563 144.491,214.563 143.893 C 214.563 142.996,214.560 142.994,214.097 143.552 M193.278 143.755 C 193.170 143.930,192.974 144.006,192.843 143.925 C 192.712 143.844,192.604 143.959,192.604 144.180 C 192.604 144.402,192.792 144.583,193.021 144.583 C 193.250 144.583,193.368 144.514,193.284 144.430 C 193.200 144.345,193.287 144.088,193.478 143.857 C 193.670 143.626,193.747 143.438,193.650 143.438 C 193.554 143.438,193.386 143.580,193.278 143.755 M159.690 144.840 C 159.478 145.096,159.144 145.210,158.949 145.093 C 158.754 144.976,158.787 145.118,159.023 145.409 C 159.532 146.037,159.716 146.080,159.609 145.547 C 159.566 145.332,159.684 145.184,159.870 145.217 C 160.056 145.250,160.208 145.075,160.208 144.826 C 160.208 144.264,160.168 144.265,159.690 144.840 M167.325 152.218 C 167.054 152.656,167.736 152.812,168.085 152.392 C 168.344 152.080,168.311 151.979,167.950 151.979 C 167.687 151.979,167.406 152.087,167.325 152.218 M161.375 153.281 C 161.375 153.654,161.556 153.958,161.776 153.958 C 162.045 153.958,162.078 153.839,161.877 153.597 C 161.685 153.364,161.690 153.122,161.893 152.920 C 162.105 152.707,162.072 152.604,161.792 152.604 C 161.563 152.604,161.375 152.909,161.375 153.281 M258.278 153.755 C 258.170 153.930,257.974 154.006,257.843 153.925 C 257.712 153.844,257.604 153.983,257.604 154.234 C 257.604 154.628,257.675 154.626,258.124 154.219 C 258.410 153.960,258.761 153.854,258.904 153.984 C 259.046 154.113,259.062 154.043,258.938 153.828 C 258.665 153.355,258.535 153.340,258.278 153.755 M207.205 158.615 C 207.406 158.858,207.705 158.973,207.869 158.872 C 208.232 158.647,207.962 158.340,207.317 158.245 C 206.941 158.190,206.917 158.268,207.205 158.615 M186.451 162.260 C 186.547 162.415,186.705 162.462,186.803 162.364 C 186.901 162.266,187.273 162.433,187.631 162.734 C 188.272 163.273,188.273 163.272,187.733 162.630 C 187.206 162.004,186.095 161.684,186.451 162.260 M244.844 168.438 C 244.738 168.609,244.694 168.761,244.747 168.774 C 245.776 169.029,245.951 168.987,245.604 168.569 C 245.166 168.041,245.096 168.029,244.844 168.438 M233.440 172.965 C 233.228 173.221,232.953 173.368,232.829 173.292 C 232.705 173.215,232.604 173.358,232.604 173.609 C 232.604 174.003,232.675 174.001,233.124 173.594 C 233.410 173.335,233.715 173.194,233.801 173.281 C 233.888 173.367,233.958 173.227,233.958 172.969 C 233.958 172.388,233.920 172.387,233.440 172.965 M212.782 174.766 C 212.630 175.149,212.638 176.611,212.793 176.707 C 212.902 176.774,212.991 176.347,212.991 175.758 C 212.991 174.851,212.907 174.450,212.782 174.766 M197.190 177.340 C 196.978 177.596,196.658 177.715,196.479 177.605 C 196.285 177.485,196.248 177.556,196.386 177.779 C 196.549 178.043,196.735 178.059,197.010 177.830 C 197.225 177.652,197.470 177.575,197.555 177.659 C 197.639 177.743,197.708 177.602,197.708 177.344 C 197.708 176.763,197.670 176.762,197.190 177.340 M199.189 177.891 C 198.595 178.592,198.595 178.593,199.239 178.051 C 199.756 177.616,199.969 177.585,200.317 177.895 C 200.685 178.222,200.688 178.198,200.337 177.734 C 199.826 177.059,199.902 177.049,199.189 177.891 M158.101 179.453 C 157.892 180.137,157.941 180.592,158.218 180.537 C 158.409 180.500,158.572 180.633,158.580 180.833 C 158.587 181.034,158.689 181.293,158.805 181.409 C 158.921 181.525,158.974 181.361,158.923 181.044 C 158.872 180.728,158.960 180.305,159.118 180.106 C 159.297 179.880,159.279 179.665,159.070 179.536 C 158.885 179.422,158.773 179.444,158.820 179.586 C 158.868 179.728,158.766 179.879,158.594 179.922 C 158.422 179.965,158.316 179.859,158.359 179.688 C 158.424 179.429,158.177 179.205,158.101 179.453 M192.661 180.618 C 192.547 180.802,192.640 180.914,192.867 180.867 C 193.119 180.815,193.267 181.051,193.245 181.470 C 193.225 181.849,193.366 182.131,193.557 182.095 C 193.749 182.060,193.863 182.231,193.810 182.475 C 193.731 182.844,193.797 182.850,194.209 182.508 C 194.653 182.140,194.654 182.044,194.226 181.570 C 193.963 181.280,193.854 180.914,193.984 180.756 C 194.113 180.598,194.091 180.573,193.935 180.700 C 193.779 180.828,193.475 180.786,193.260 180.607 C 192.988 180.381,192.805 180.385,192.661 180.618 M241.668 182.266 C 241.256 182.925,241.238 183.574,241.643 183.169 C 241.976 182.837,242.257 181.875,242.022 181.875 C 241.961 181.875,241.802 182.051,241.668 182.266 M180.481 184.668 C 180.381 184.830,180.045 184.913,179.733 184.853 C 179.405 184.789,179.167 184.927,179.167 185.179 C 179.167 185.448,179.296 185.513,179.505 185.348 C 179.691 185.201,180.066 185.117,180.339 185.161 C 180.611 185.206,180.833 185.047,180.833 184.808 C 180.833 184.301,180.732 184.261,180.481 184.668 M184.479 184.795 C 184.479 185.011,184.803 185.188,185.198 185.188 C 185.807 185.188,185.967 184.853,185.365 184.839 C 185.250 184.836,185.004 184.737,184.818 184.618 C 184.632 184.500,184.479 184.579,184.479 184.795 M207.461 191.406 C 207.439 191.492,207.402 191.668,207.378 191.797 C 207.354 191.926,207.237 192.184,207.118 192.370 C 207.000 192.556,207.079 192.708,207.295 192.708 C 207.511 192.708,207.688 192.380,207.688 191.979 C 207.688 191.322,207.562 191.004,207.461 191.406 M205.511 192.744 C 205.410 192.907,205.595 193.283,205.921 193.579 C 206.444 194.052,206.506 194.057,206.442 193.618 C 206.341 192.931,205.743 192.369,205.511 192.744 M224.445 194.742 C 224.493 194.970,224.332 195.113,224.088 195.060 C 223.721 194.981,223.714 195.049,224.048 195.451 C 224.270 195.719,224.528 195.938,224.622 195.938 C 224.715 195.938,224.699 195.845,224.586 195.732 C 224.473 195.619,224.527 195.350,224.705 195.135 C 224.931 194.863,224.928 194.680,224.695 194.536 C 224.510 194.422,224.398 194.515,224.445 194.742 M180.336 195.441 C 180.073 195.757,180.066 195.942,180.313 196.094 C 180.556 196.244,180.542 196.456,180.265 196.825 C 179.934 197.264,179.942 197.283,180.316 196.949 C 180.559 196.732,180.777 196.205,180.799 195.777 C 180.848 194.873,180.822 194.854,180.336 195.441 M206.545 196.045 C 206.757 196.257,206.740 196.521,206.492 196.852 C 206.185 197.262,206.197 197.279,206.559 196.956 C 207.151 196.429,207.216 195.729,206.673 195.729 C 206.374 195.729,206.332 195.832,206.545 196.045 M210.133 200.529 C 210.179 200.840,210.320 201.070,210.446 201.042 C 210.921 200.934,210.939 200.703,210.501 200.340 C 210.134 200.035,210.066 200.071,210.133 200.529 M245.336 201.066 C 245.085 201.367,245.073 201.571,245.297 201.709 C 245.478 201.821,245.636 201.868,245.649 201.815 C 245.952 200.590,245.878 200.412,245.336 201.066 M194.232 202.791 C 194.133 202.951,194.198 203.172,194.375 203.281 C 194.552 203.391,194.623 203.602,194.531 203.750 C 194.440 203.898,194.495 204.100,194.655 204.199 C 194.896 204.348,194.907 203.723,194.674 203.125 C 194.641 203.039,194.630 202.863,194.650 202.734 C 194.702 202.407,194.448 202.442,194.232 202.791 M161.331 206.411 C 161.461 206.555,161.253 207.034,160.867 207.477 C 160.481 207.919,160.365 208.107,160.610 207.895 C 160.967 207.584,161.180 207.615,161.699 208.051 C 162.332 208.584,162.334 208.582,161.801 207.949 C 161.415 207.490,161.355 207.207,161.594 206.969 C 161.833 206.730,161.809 206.564,161.512 206.391 C 161.282 206.259,161.201 206.267,161.331 206.411 M203.904 208.383 C 204.020 208.499,204.279 208.600,204.479 208.608 C 204.680 208.616,204.805 208.802,204.758 209.022 C 204.710 209.246,204.825 209.327,205.019 209.207 C 205.447 208.943,204.942 208.355,204.193 208.245 C 203.918 208.205,203.788 208.267,203.904 208.383 M239.384 208.897 C 238.985 209.321,238.539 209.594,238.392 209.503 C 237.902 209.200,238.117 209.605,238.672 210.030 C 238.973 210.260,239.111 210.322,238.980 210.168 C 238.849 210.013,239.121 209.491,239.585 209.006 C 240.050 208.521,240.357 208.125,240.269 208.125 C 240.181 208.125,239.783 208.472,239.384 208.897 M165.104 209.210 C 165.104 209.473,165.175 209.617,165.261 209.531 C 165.480 209.312,166.579 210.346,166.413 210.615 C 166.338 210.735,166.459 210.833,166.680 210.833 C 166.902 210.833,167.083 210.646,167.083 210.417 C 167.083 210.188,167.011 210.072,166.923 210.161 C 166.834 210.249,166.389 209.964,165.933 209.527 C 165.328 208.947,165.104 208.862,165.104 209.210 M210.868 211.068 C 210.987 211.254,211.086 211.500,211.089 211.615 C 211.103 212.217,211.438 212.057,211.438 211.448 C 211.438 211.053,211.261 210.729,211.045 210.729 C 210.829 210.729,210.750 210.882,210.868 211.068 M233.213 212.295 C 233.250 212.494,233.129 212.629,232.943 212.595 C 232.757 212.562,232.604 212.710,232.604 212.924 C 232.604 213.137,232.926 213.313,233.320 213.313 C 233.871 213.313,233.958 213.219,233.698 212.906 C 233.373 212.514,233.568 212.358,234.219 212.489 C 234.391 212.524,234.422 212.443,234.288 212.309 C 233.892 211.913,233.139 211.903,233.213 212.295 M222.227 214.796 C 221.935 215.148,222.001 215.225,222.573 215.194 C 222.963 215.173,223.251 215.319,223.213 215.517 C 223.176 215.715,223.387 216.067,223.682 216.298 C 224.155 216.669,224.172 216.659,223.831 216.221 C 223.617 215.948,223.513 215.654,223.598 215.568 C 223.684 215.483,223.492 215.176,223.172 214.886 C 222.678 214.439,222.535 214.425,222.227 214.796 M183.278 220.005 C 183.170 220.180,182.974 220.256,182.843 220.175 C 182.712 220.094,182.604 220.233,182.604 220.484 C 182.604 220.878,182.675 220.876,183.124 220.469 C 183.410 220.210,183.761 220.104,183.904 220.234 C 184.046 220.363,184.062 220.293,183.938 220.078 C 183.665 219.605,183.535 219.590,183.278 220.005 M186.976 220.831 C 187.090 220.944,187.036 221.212,186.857 221.428 C 186.631 221.700,186.635 221.883,186.868 222.027 C 187.052 222.141,187.164 222.097,187.117 221.929 C 187.070 221.762,187.172 221.625,187.344 221.625 C 187.516 221.625,187.629 221.728,187.595 221.854 C 187.562 221.980,187.740 222.083,187.992 222.083 C 188.327 222.083,188.267 221.890,187.764 221.354 C 187.387 220.953,187.009 220.625,186.925 220.625 C 186.840 220.625,186.863 220.718,186.976 220.831 M200.184 225.594 C 199.823 225.993,199.759 226.257,199.987 226.398 C 200.177 226.516,200.290 226.425,200.242 226.195 C 200.195 225.967,200.309 225.809,200.495 225.842 C 200.681 225.875,200.833 225.700,200.833 225.451 C 200.833 224.881,200.829 224.882,200.184 225.594 M190.137 227.007 C 190.160 227.433,190.291 227.895,190.428 228.032 C 190.565 228.169,190.649 228.141,190.614 227.969 C 190.481 227.309,190.641 227.125,191.052 227.466 C 191.380 227.738,191.576 227.692,191.897 227.269 C 192.251 226.801,192.248 226.777,191.878 227.107 C 191.525 227.421,191.313 227.375,190.769 226.863 L 190.095 226.231 190.137 227.007 M232.010 227.109 C 232.677 227.909,232.846 227.982,232.734 227.422 C 232.691 227.207,232.842 227.070,233.070 227.117 C 233.298 227.164,233.391 227.052,233.277 226.868 C 233.134 226.637,232.948 226.633,232.683 226.852 C 232.416 227.074,232.163 227.055,231.860 226.789 C 231.620 226.579,231.687 226.723,232.010 227.109 M194.500 229.583 C 194.500 230.064,194.605 230.207,194.809 230.003 C 195.263 229.550,195.300 228.854,194.871 228.854 C 194.667 228.854,194.500 229.182,194.500 229.583 M233.414 229.914 C 233.181 230.219,233.112 230.365,233.263 230.237 C 233.413 230.110,233.714 230.153,233.931 230.333 C 234.220 230.573,234.306 230.534,234.255 230.183 C 234.141 229.410,233.868 229.323,233.414 229.914 M216.479 233.724 C 216.148 234.149,216.163 234.165,216.586 233.836 C 216.917 233.578,217.181 233.556,217.393 233.768 C 217.605 233.980,217.708 233.944,217.708 233.656 C 217.708 233.075,216.953 233.117,216.479 233.724 M165.206 234.323 C 164.600 234.955,164.494 235.208,164.835 235.208 C 165.098 235.208,165.241 235.137,165.153 235.049 C 165.066 234.962,165.301 234.563,165.677 234.164 C 166.052 233.764,166.290 233.438,166.207 233.438 C 166.123 233.438,165.673 233.836,165.206 234.323 M164.232 236.541 C 164.133 236.701,164.198 236.922,164.375 237.031 C 164.552 237.141,164.615 237.365,164.513 237.529 C 164.412 237.694,164.515 237.789,164.742 237.742 C 164.970 237.695,165.118 237.842,165.070 238.070 C 165.022 238.303,165.135 238.391,165.328 238.272 C 165.556 238.131,165.452 237.825,165.021 237.366 C 164.662 236.984,164.464 236.577,164.580 236.461 C 164.697 236.345,164.706 236.250,164.602 236.250 C 164.497 236.250,164.331 236.381,164.232 236.541 M185.125 237.047 C 185.125 237.714,185.657 237.884,186.163 237.379 C 186.297 237.245,186.266 237.164,186.094 237.198 C 185.438 237.331,185.249 237.172,185.582 236.771 C 185.839 236.460,185.825 236.354,185.526 236.354 C 185.306 236.354,185.125 236.666,185.125 237.047 M195.104 240.521 C 195.104 240.750,195.173 240.868,195.258 240.784 C 195.342 240.700,195.635 240.805,195.909 241.018 C 196.338 241.353,196.353 241.338,196.018 240.909 C 195.805 240.635,195.700 240.342,195.784 240.258 C 195.868 240.173,195.750 240.104,195.521 240.104 C 195.292 240.104,195.104 240.292,195.104 240.521 M215.133 242.404 C 215.179 242.715,215.320 242.945,215.446 242.917 C 215.921 242.809,215.939 242.578,215.501 242.215 C 215.134 241.910,215.066 241.946,215.133 242.404 M232.361 244.660 C 232.245 244.847,232.194 245.011,232.247 245.024 C 233.054 245.224,233.468 245.203,233.620 244.957 C 233.732 244.776,234.012 244.819,234.325 245.063 C 234.790 245.427,234.799 245.412,234.412 244.918 C 234.114 244.538,233.864 244.463,233.607 244.676 C 233.360 244.881,233.123 244.873,232.903 244.653 C 232.668 244.418,232.509 244.420,232.361 244.660 M168.768 245.178 C 168.969 245.420,169.267 245.535,169.431 245.434 C 169.795 245.209,169.525 244.902,168.880 244.808 C 168.503 244.752,168.480 244.831,168.768 245.178 M200.418 247.266 C 200.014 247.913,200.046 248.333,200.499 248.333 C 200.788 248.333,200.830 248.216,200.627 247.972 C 200.432 247.736,200.456 247.482,200.695 247.243 C 200.897 247.040,200.972 246.875,200.862 246.875 C 200.752 246.875,200.552 247.051,200.418 247.266 M195.601 250.078 C 195.402 250.727,195.426 251.283,195.658 251.427 C 195.817 251.525,195.853 251.758,195.738 251.945 C 195.610 252.152,195.675 252.194,195.904 252.052 C 196.142 251.905,196.175 251.686,195.993 251.457 C 195.835 251.257,195.745 250.848,195.794 250.547 C 195.863 250.116,195.706 249.734,195.601 250.078 M220.104 257.996 C 220.104 258.425,220.800 258.388,221.253 257.934 C 221.457 257.730,221.314 257.625,220.833 257.625 C 220.432 257.625,220.104 257.792,220.104 257.996 M176.403 259.380 C 176.295 259.555,176.099 259.631,175.968 259.550 C 175.837 259.469,175.729 259.584,175.729 259.805 C 175.729 260.027,175.917 260.208,176.146 260.208 C 176.375 260.208,176.493 260.139,176.409 260.055 C 176.325 259.970,176.412 259.713,176.603 259.482 C 176.795 259.251,176.872 259.063,176.775 259.063 C 176.679 259.063,176.511 259.205,176.403 259.380 M219.431 259.688 C 219.491 259.970,219.345 260.115,219.063 260.052 C 218.805 259.995,218.711 260.065,218.854 260.208 C 218.997 260.352,219.208 260.446,219.323 260.417 C 219.438 260.389,219.696 260.502,219.897 260.669 C 220.403 261.089,220.246 260.119,219.725 259.606 C 219.410 259.297,219.351 259.314,219.431 259.688 M226.403 265.630 C 226.295 265.805,226.041 265.848,225.838 265.726 C 225.634 265.604,225.664 265.745,225.904 266.041 C 226.366 266.611,226.642 266.523,226.752 265.772 C 226.831 265.238,226.683 265.177,226.403 265.630 M226.107 268.416 C 226.008 268.576,226.077 268.799,226.260 268.912 C 226.488 269.053,226.465 269.282,226.187 269.637 C 225.823 270.102,225.838 270.111,226.332 269.724 C 226.717 269.422,226.788 269.178,226.569 268.914 C 226.397 268.706,226.348 268.444,226.461 268.331 C 226.574 268.218,226.581 268.125,226.477 268.125 C 226.372 268.125,226.206 268.256,226.107 268.416 M225.289 270.391 C 225.021 271.265,225.092 271.563,225.490 271.232 C 225.733 271.031,225.854 270.742,225.759 270.590 C 225.598 270.328,225.341 270.219,225.289 270.391 M227.729 272.474 C 227.397 272.900,227.413 272.915,227.841 272.581 C 228.115 272.367,228.430 272.284,228.542 272.396 C 228.796 272.650,228.135 273.481,227.829 273.292 C 227.705 273.215,227.604 273.355,227.604 273.603 C 227.604 273.912,227.719 273.957,227.971 273.748 C 228.505 273.305,228.810 273.762,228.372 274.346 C 228.057 274.766,228.069 274.781,228.444 274.446 C 229.025 273.927,229.093 271.979,228.531 271.979 C 228.302 271.979,227.942 272.202,227.729 272.474 M206.329 273.909 C 206.458 274.051,206.352 274.402,206.093 274.688 C 205.674 275.151,205.674 275.208,206.092 275.208 C 206.351 275.208,206.493 275.139,206.409 275.055 C 206.325 274.970,206.402 274.725,206.580 274.510 C 206.810 274.233,206.786 274.050,206.500 273.884 C 206.276 273.755,206.200 273.766,206.329 273.909 M225.289 274.727 C 225.087 275.710,225.132 275.813,225.766 275.813 C 226.147 275.813,226.458 275.630,226.458 275.406 C 226.458 275.183,226.389 275.069,226.305 275.154 C 226.220 275.238,225.963 275.150,225.732 274.959 C 225.501 274.768,225.302 274.663,225.289 274.727 M221.586 281.066 C 221.331 281.373,221.321 281.570,221.552 281.713 C 221.735 281.826,221.791 282.071,221.676 282.257 C 221.547 282.465,221.612 282.506,221.842 282.364 C 222.103 282.203,222.120 282.014,221.898 281.746 C 221.676 281.480,221.691 281.246,221.945 280.993 C 222.147 280.790,222.231 280.625,222.132 280.625 C 222.033 280.625,221.787 280.823,221.586 281.066 M196.383 281.779 C 196.429 282.090,196.570 282.320,196.696 282.292 C 197.171 282.184,197.189 281.953,196.751 281.590 C 196.384 281.285,196.316 281.321,196.383 281.779 M219.528 283.755 C 219.420 283.930,219.179 283.978,218.993 283.863 C 218.785 283.735,218.744 283.800,218.886 284.029 C 219.064 284.317,219.221 284.320,219.559 284.039 C 219.969 283.700,220.137 283.856,220.029 284.476 C 220.005 284.618,220.135 284.641,220.320 284.527 C 220.555 284.381,220.546 284.188,220.289 283.878 C 219.853 283.353,219.784 283.341,219.528 283.755 M188.918 284.356 C 188.851 284.465,189.271 284.554,189.852 284.554 C 190.433 284.554,190.837 284.483,190.751 284.397 C 190.516 284.162,189.058 284.129,188.918 284.356 M209.769 289.869 C 210.068 290.227,210.230 290.603,210.128 290.705 C 210.026 290.807,210.168 290.858,210.443 290.817 C 210.719 290.777,211.083 290.576,211.253 290.372 C 211.477 290.103,211.459 290.086,211.190 290.310 C 210.931 290.526,210.573 290.406,210.020 289.920 C 209.326 289.309,209.294 289.303,209.769 289.869 M180.940 291.090 C 180.728 291.346,180.408 291.465,180.229 291.355 C 180.034 291.234,179.998 291.306,180.139 291.535 C 180.269 291.745,180.454 291.838,180.549 291.742 C 180.645 291.646,180.884 291.701,181.081 291.864 C 181.332 292.072,181.438 291.933,181.438 291.393 C 181.438 290.490,181.438 290.490,180.940 291.090 M202.805 292.243 C 203.000 292.478,203.002 292.740,202.810 292.972 C 202.608 293.216,202.649 293.333,202.938 293.333 C 203.444 293.333,203.403 292.626,202.872 292.184 C 202.605 291.962,202.586 291.979,202.805 292.243 M197.215 294.186 C 196.920 294.541,196.928 294.624,197.248 294.577 C 197.680 294.514,197.958 294.104,197.727 293.873 C 197.651 293.797,197.421 293.938,197.215 294.186 M219.480 298.334 C 219.595 298.449,219.442 298.836,219.141 299.193 C 218.602 299.834,218.603 299.836,219.244 299.296 C 219.602 298.995,220.019 298.854,220.171 298.984 C 220.324 299.113,220.260 298.973,220.030 298.672 C 219.799 298.371,219.534 298.125,219.441 298.125 C 219.347 298.125,219.365 298.219,219.480 298.334 M193.903 300.630 C 193.795 300.805,193.576 300.867,193.416 300.768 C 192.946 300.477,193.083 300.826,193.611 301.265 C 194.014 301.598,194.081 301.591,194.002 301.225 C 193.949 300.981,194.092 300.820,194.320 300.867 C 194.548 300.914,194.645 300.809,194.536 300.633 C 194.287 300.230,194.151 300.230,193.903 300.630 M221.539 301.641 C 221.294 302.438,221.408 302.688,222.016 302.688 C 222.397 302.688,222.708 302.507,222.708 302.286 C 222.708 301.987,222.602 301.973,222.292 302.231 C 221.909 302.548,221.744 302.390,221.838 301.797 C 221.871 301.588,221.598 301.446,221.539 301.641 M205.289 303.516 C 205.021 304.390,205.092 304.688,205.490 304.357 C 205.733 304.156,205.854 303.867,205.759 303.715 C 205.598 303.453,205.341 303.344,205.289 303.516 M220.466 304.068 C 220.358 304.242,220.103 304.290,219.900 304.174 C 219.697 304.057,219.635 304.077,219.763 304.218 C 219.890 304.359,219.857 304.639,219.690 304.841 C 219.480 305.093,219.525 305.208,219.831 305.208 C 220.077 305.208,220.250 305.056,220.217 304.870 C 220.184 304.684,220.309 304.559,220.495 304.592 C 220.681 304.625,220.833 304.450,220.833 304.201 C 220.833 303.669,220.734 303.633,220.466 304.068 M201.716 307.193 C 201.608 307.367,201.398 307.435,201.250 307.344 C 201.102 307.252,200.891 307.323,200.781 307.500 C 200.672 307.677,200.451 307.742,200.291 307.643 C 199.821 307.352,199.958 307.701,200.486 308.140 C 200.887 308.472,200.956 308.468,200.877 308.114 C 200.824 307.878,200.950 307.678,201.156 307.670 C 201.539 307.656,202.477 306.875,202.112 306.875 C 202.002 306.875,201.824 307.018,201.716 307.193 M196.586 309.191 C 196.331 309.498,196.321 309.695,196.552 309.838 C 196.735 309.951,196.790 310.209,196.674 310.412 C 196.557 310.615,196.585 310.669,196.736 310.532 C 196.969 310.319,197.221 308.750,197.021 308.750 C 196.983 308.750,196.787 308.948,196.586 309.191 M216.043 312.891 C 215.639 313.538,215.671 313.958,216.124 313.958 C 216.446 313.958,216.466 313.854,216.207 313.542 C 215.885 313.154,216.053 312.990,216.664 313.096 C 216.806 313.120,216.832 312.996,216.724 312.820 C 216.466 312.403,216.339 312.416,216.043 312.891 M212.917 318.905 C 212.917 319.162,213.210 319.619,213.568 319.921 C 214.205 320.457,214.207 320.455,213.694 319.844 C 213.406 319.500,213.171 319.102,213.173 318.958 C 213.175 318.815,213.118 318.639,213.047 318.568 C 212.975 318.496,212.917 318.648,212.917 318.905 M216.383 320.529 C 216.429 320.840,216.570 321.070,216.696 321.042 C 217.171 320.934,217.189 320.703,216.751 320.340 C 216.384 320.035,216.316 320.071,216.383 320.529 M203.229 321.094 C 203.229 321.313,203.421 321.464,203.654 321.429 C 204.261 321.340,204.312 320.855,203.724 320.768 C 203.452 320.728,203.229 320.875,203.229 321.094 M215.243 325.443 C 215.362 325.629,215.461 325.875,215.464 325.990 C 215.478 326.592,215.813 326.432,215.813 325.823 C 215.813 325.428,215.636 325.104,215.420 325.104 C 215.204 325.104,215.125 325.257,215.243 325.443 M199.900 331.500 C 199.423 332.027,199.439 332.063,200.151 332.063 C 200.685 332.063,200.822 331.956,200.614 331.706 C 200.451 331.509,200.410 331.256,200.524 331.143 C 200.637 331.030,200.657 330.938,200.569 330.938 C 200.481 330.938,200.180 331.191,199.900 331.500 M187.619 331.935 C 187.528 332.082,187.569 332.183,187.711 332.158 C 188.389 332.040,188.489 332.237,188.016 332.760 C 187.591 333.230,187.579 333.333,187.950 333.333 C 188.199 333.333,188.394 333.251,188.383 333.151 C 188.372 333.051,188.391 332.898,188.424 332.813 C 188.797 331.857,188.122 331.121,187.619 331.935 M208.845 332.929 C 208.879 333.107,208.738 333.259,208.531 333.267 C 208.111 333.283,207.229 334.063,207.632 334.063 C 207.773 334.063,207.696 334.309,207.460 334.609 C 207.073 335.103,207.084 335.115,207.568 334.736 C 207.863 334.504,208.074 334.159,208.037 333.969 C 207.999 333.778,208.145 333.598,208.359 333.569 C 208.574 333.540,208.855 333.481,208.984 333.440 C 209.113 333.398,209.301 333.372,209.401 333.383 C 209.501 333.394,209.583 333.223,209.583 333.003 C 209.583 332.784,209.404 332.604,209.184 332.604 C 208.964 332.604,208.812 332.750,208.845 332.929 M210.104 332.969 C 210.104 333.188,210.296 333.339,210.529 333.304 C 211.136 333.215,211.187 332.730,210.599 332.643 C 210.327 332.603,210.104 332.750,210.104 332.969 M209.023 334.200 C 209.002 334.296,208.965 334.480,208.941 334.609 C 208.833 335.186,208.365 335.617,208.055 335.426 C 207.848 335.297,207.806 335.362,207.948 335.592 C 208.111 335.856,208.297 335.871,208.572 335.643 C 208.788 335.464,209.056 335.387,209.169 335.471 C 209.282 335.556,209.306 335.532,209.221 335.419 C 209.137 335.306,209.214 335.038,209.393 334.822 C 209.618 334.551,209.617 334.368,209.390 334.228 C 209.210 334.117,209.045 334.104,209.023 334.200 M216.539 335.391 C 216.271 336.265,216.342 336.563,216.740 336.232 C 216.983 336.031,217.104 335.742,217.009 335.590 C 216.848 335.328,216.591 335.219,216.539 335.391 M197.666 338.734 C 197.551 338.920,197.304 338.978,197.118 338.863 C 196.909 338.734,196.869 338.800,197.014 339.035 C 197.144 339.245,197.329 339.338,197.424 339.242 C 197.520 339.146,197.776 339.215,197.993 339.395 C 198.283 339.636,198.369 339.596,198.317 339.245 C 198.219 338.575,197.913 338.335,197.666 338.734 M190.141 345.529 C 190.191 345.840,190.086 346.277,189.907 346.502 C 189.668 346.802,189.699 346.885,190.025 346.815 C 190.269 346.762,190.430 346.905,190.383 347.133 C 190.334 347.368,190.447 347.454,190.644 347.332 C 190.890 347.180,190.894 347.019,190.660 346.785 C 190.439 346.564,190.431 346.327,190.636 346.080 C 190.846 345.827,190.802 345.589,190.498 345.337 C 190.135 345.036,190.067 345.072,190.141 345.529 M202.066 354.319 C 201.965 354.483,202.080 354.781,202.322 354.982 C 202.669 355.270,202.748 355.247,202.692 354.870 C 202.598 354.225,202.291 353.955,202.066 354.319 M201.696 357.092 C 201.741 357.402,201.882 357.633,202.009 357.604 C 202.484 357.497,202.502 357.265,202.064 356.902 C 201.697 356.598,201.628 356.633,201.696 357.092 " stroke="none" fill="#fcfcfc" fill-rule="evenodd"></path><path id="path1" d="" stroke="none" fill="#100fcfc" fill-rule="evenodd"></path><path id="path2" d="" stroke="none" fill="#100fcfc" fill-rule="evenodd"></path><path id="path3" d="" stroke="none" fill="#100fcfc" fill-rule="evenodd"></path><path id="path4" d="" stroke="none" fill="#100fcfc" fill-rule="evenodd"></path></g></svg>