<?xml version="1.0" encoding="UTF-8"?>
<svg version="1.1" xmlns="http://www.w3.org/2000/svg" width="1280" height="1280">
<path d="M0 0 C396 0 792 0 1200 0 C1200 396 1200 792 1200 1200 C804 1200 408 1200 0 1200 C0 804 0 408 0 0 Z M560 102 C561 104 561 104 561 104 Z M567 102 C568 104 568 104 568 104 Z M628 105 C628 105.66 628 106.32 628 107 C628.66 106.67 629.32 106.34 630 106 C629.34 105.67 628.68 105.34 628 105 Z M563 106 C564 108 564 108 564 108 Z M645 110 C645 110.66 645 111.32 645 112 C645.66 111.67 646.32 111.34 647 111 C646.34 110.67 645.68 110.34 645 110 Z M640 114 C641 116 641 116 641 116 Z M412 118 C411.67 118.66 411.34 119.32 411 120 C411.99 119.67 412.98 119.34 414 119 C413.34 118.67 412.68 118.34 412 118 Z M647 118 C648 120 648 120 648 120 Z M709 118 C710 120 710 120 710 120 Z M788 118 C788 118.66 788 119.32 788 120 C788.66 119.67 789.32 119.34 790 119 C789.34 118.67 788.68 118.34 788 118 Z M553 119 C552.67 119.99 552.34 120.98 552 122 C552.66 122 553.32 122 554 122 C553.67 121.01 553.34 120.02 553 119 Z M407 120 C408 122 408 122 408 122 Z M803 120 C803 120.66 803 121.32 803 122 C803.66 121.67 804.32 121.34 805 121 C804.34 120.67 803.68 120.34 803 120 Z M793 121 C797 122 797 122 797 122 Z M400 123 C404 124 404 124 404 124 Z M414 123 C413.67 123.66 413.34 124.32 413 125 C414.32 124.34 415.64 123.68 417 123 C416.01 123 415.02 123 414 123 Z M515 128 C514.34 129.32 513.68 130.64 513 132 C513.99 132 514.98 132 516 132 C515.67 130.68 515.34 129.36 515 128 Z M356 137 C356 137.66 356 138.32 356 139 C356.99 139 357.98 139 359 139 C359 138.34 359 137.68 359 137 C358.01 137 357.02 137 356 137 Z M378 137 C377.67 137.66 377.34 138.32 377 139 C377.66 139 378.32 139 379 139 C378.67 138.34 378.34 137.68 378 137 Z M673 137 C674 139 674 139 674 139 Z M839 137 C839.33 137.99 839.66 138.98 840 140 C840 139.01 840 138.02 840 137 C839.67 137 839.34 137 839 137 Z M828 140 C830.67642489 142.18490007 830.67642489 142.18490007 833 142 C833 141.34 833 140.68 833 140 C831.35 140 829.7 140 828 140 Z M356 142 C357 144 357 144 357 144 Z M841 143 C841.33 143.66 841.66 144.32 842 145 C842.33 144.34 842.66 143.68 843 143 C842.34 143 841.68 143 841 143 Z M850 144 C850 144.66 850 145.32 850 146 C850.66 146 851.32 146 852 146 C852 145.34 852 144.68 852 144 C851.34 144 850.68 144 850 144 Z M346 147 C346 147.66 346 148.32 346 149 C346.66 149 347.32 149 348 149 C348 148.34 348 147.68 348 147 C347.34 147 346.68 147 346 147 Z M351 147 C351.66 147.66 352.32 148.32 353 149 C353.33 148.34 353.66 147.68 354 147 C353.01 147 352.02 147 351 147 Z M674 147 C674.66 147.66 675.32 148.32 676 149 C676 148.34 676 147.68 676 147 C675.34 147 674.68 147 674 147 Z M335 156 C336 158 336 158 336 158 Z M327 159 C328 161 328 161 328 161 Z M892 159 C896 160 896 160 896 160 Z M538 164 C538 164.33 538 164.66 538 165 C539.98 165 541.96 165 544 165 C544 164.67 544 164.34 544 164 C542.02 164 540.04 164 538 164 Z M550 166 C551 168 551 168 551 168 Z M899 167 C900 169 900 169 900 169 Z M524 174 C525 176 525 176 525 176 Z M913 175 C914 177 914 177 914 177 Z M276 178 C276.33 178.66 276.66 179.32 277 180 C277.33 179.34 277.66 178.68 278 178 C277.34 178 276.68 178 276 178 Z M269 180 C269 180.66 269 181.32 269 182 C269.66 181.67 270.32 181.34 271 181 C270.34 180.67 269.68 180.34 269 180 Z M253 185 C254 187 254 187 254 187 Z M565 185 C564.67 185.66 564.34 186.32 564 187 C564.66 187 565.32 187 566 187 C565.67 186.34 565.34 185.68 565 185 Z M637 185 C637 185.66 637 186.32 637 187 C638.32 186.67 639.64 186.34 641 186 C639.68 185.67 638.36 185.34 637 185 Z M945 187 C945 187.66 945 188.32 945 189 C945.66 188.67 946.32 188.34 947 188 C946.34 187.67 945.68 187.34 945 187 Z M644 188 C644 188.66 644 189.32 644 190 C644.66 190 645.32 190 646 190 C646 189.34 646 188.68 646 188 C645.34 188 644.68 188 644 188 Z M565 191 C564.67 191.99 564.34 192.98 564 194 C564.66 194 565.32 194 566 194 C565.67 193.01 565.34 192.02 565 191 Z M964 192 C965 194 965 194 965 194 Z M975 194 C975.33 194.99 975.66 195.98 976 197 C976.33 196.01 976.66 195.02 977 194 C976.34 194 975.68 194 975 194 Z M214 195 C215 197 215 197 215 197 Z M226 195 C226 195.66 226 196.32 226 197 C226.66 197 227.32 197 228 197 C228 196.34 228 195.68 228 195 C227.34 195 226.68 195 226 195 Z M644 202 C645 204 645 204 645 204 Z M647 205 C647 205.66 647 206.32 647 207 C647.66 206.67 648.32 206.34 649 206 C648.34 205.67 647.68 205.34 647 205 Z M682 214 C682 214.66 682 215.32 682 216 C682.66 216 683.32 216 684 216 C684 215.34 684 214.68 684 214 C683.34 214 682.68 214 682 214 Z M118 216 C119 218 119 218 119 218 Z M125 216 C126 218 126 218 126 218 Z M1086 220 C1086 220.66 1086 221.32 1086 222 C1086.99 221.67 1087.98 221.34 1089 221 C1088.01 220.67 1087.02 220.34 1086 220 Z M560 223 C560 223.66 560 224.32 560 225 C560.66 224.67 561.32 224.34 562 224 C561.34 223.67 560.68 223.34 560 223 Z M676 223 C677 225 677 225 677 225 Z M636 224 C640 225 640 225 640 225 Z M116 233 C115.67 233.66 115.34 234.32 115 235 C115.66 235 116.32 235 117 235 C116.67 234.34 116.34 233.68 116 233 Z M639 233 C639 233.66 639 234.32 639 235 C639.99 234.67 640.98 234.34 642 234 C641.01 233.67 640.02 233.34 639 233 Z M656 233 C657 235 657 235 657 235 Z M666 233 C666 233.66 666 234.32 666 235 C666.66 234.67 667.32 234.34 668 234 C667.34 233.67 666.68 233.34 666 233 Z M653 235 C653 235.66 653 236.32 653 237 C653.66 236.67 654.32 236.34 655 236 C654.34 235.67 653.68 235.34 653 235 Z M908 236 C908.33 236.99 908.66 237.98 909 239 C909.33 238.01 909.66 237.02 910 236 C909.34 236 908.68 236 908 236 Z M118 240 C117.67 240.66 117.34 241.32 117 242 C117.99 242 118.98 242 120 242 C120 241.34 120 240.68 120 240 C119.34 240 118.68 240 118 240 Z M560 242 C561 244 561 244 561 244 Z M567 243 C567.66 243.66 568.32 244.32 569 245 C569 244.34 569 243.68 569 243 C568.34 243 567.68 243 567 243 Z M637 244 C637.33 244.99 637.66 245.98 638 247 C638 246.01 638 245.02 638 244 C637.67 244 637.34 244 637 244 Z M149 253 C150 255 150 255 150 255 Z M964 257 C964 257.66 964 258.32 964 259 C964.99 258.67 965.98 258.34 967 258 C966.01 257.67 965.02 257.34 964 257 Z M159 262 C159 262.66 159 263.32 159 264 C159.99 264.33 160.98 264.66 162 265 C162 264.01 162 263.02 162 262 C161.01 262 160.02 262 159 262 Z M188 264 C189 266 189 266 189 266 Z M1024 264 C1025 266 1025 266 1025 266 Z M206 267 C206 267.99 206 268.98 206 270 C206.66 270 207.32 270 208 270 C208 269.01 208 268.02 208 267 C207.34 267 206.68 267 206 267 Z M200 277 C201 279 201 279 201 279 Z M992 283 C992 283.66 992 284.32 992 285 C992.66 284.67 993.32 284.34 994 284 C993.34 283.67 992.68 283.34 992 283 Z M195 286 C196 288 196 288 196 288 Z M892 287 C893 289 893 289 893 289 Z M303 290 C304 292 304 292 304 292 Z M920 294 C921.32 294.99 922.64 295.98 924 297 C923.67 296.01 923.34 295.02 923 294 C922.01 294 921.02 294 920 294 Z M951 295 C951 295.66 951 296.32 951 297 C951.66 296.67 952.32 296.34 953 296 C952.34 295.67 951.68 295.34 951 295 Z M260 298 C261 300 261 300 261 300 Z M268 298 C267.67 298.66 267.34 299.32 267 300 C267.66 300 268.32 300 269 300 C268.67 299.34 268.34 298.68 268 298 Z M817 307 C818 309 818 309 818 309 Z M898 315 C898 315.66 898 316.32 898 317 C898.66 316.67 899.32 316.34 900 316 C899.34 315.67 898.68 315.34 898 315 Z M289 317 C288.67 317.66 288.34 318.32 288 319 C288.66 319 289.32 319 290 319 C289.67 318.34 289.34 317.68 289 317 Z M883 317 C882.67 317.66 882.34 318.32 882 319 C882.99 319 883.98 319 885 319 C885 318.34 885 317.68 885 317 C884.34 317 883.68 317 883 317 Z M838 318 C838 318.66 838 319.32 838 320 C838.66 320 839.32 320 840 320 C840 319.34 840 318.68 840 318 C839.34 318 838.68 318 838 318 Z M896 321 C896.33 321.66 896.66 322.32 897 323 C897.33 322.34 897.66 321.68 898 321 C897.34 321 896.68 321 896 321 Z M294 322 C294 322.66 294 323.32 294 324 C294.99 323.67 295.98 323.34 297 323 C296.01 322.67 295.02 322.34 294 322 Z M875 323 C876 326 876 326 876 326 Z M850 324 C850 324.66 850 325.32 850 326 C850.66 325.67 851.32 325.34 852 325 C851.34 324.67 850.68 324.34 850 324 Z M628 325 C629 327 629 327 629 327 Z M636 329 C635.67 329.66 635.34 330.32 635 331 C635.66 331 636.32 331 637 331 C636.67 330.34 636.34 329.68 636 329 Z M373 331 C372.67 331.66 372.34 332.32 372 333 C372.66 333 373.32 333 374 333 C373.67 332.34 373.34 331.68 373 331 Z M426 332 C427 334 427 334 427 334 Z M772 337 C773 339 773 339 773 339 Z M426 339 C425.67 339.66 425.34 340.32 425 341 C425.66 341 426.32 341 427 341 C426.67 340.34 426.34 339.68 426 339 Z M476 340 C475.67 340.99 475.34 341.98 475 343 C475.66 343 476.32 343 477 343 C476.67 342.01 476.34 341.02 476 340 Z M782 341 C781.67 341.66 781.34 342.32 781 343 C782.32 342.67 783.64 342.34 785 342 C784.01 341.67 783.02 341.34 782 341 Z M447 344 C448 346 448 346 448 346 Z M665 368 C665 368.66 665 369.32 665 370 C665.66 370 666.32 370 667 370 C667 369.34 667 368.68 667 368 C666.34 368 665.68 368 665 368 Z M550 370 C550 370.66 550 371.32 550 372 C550.66 372 551.32 372 552 372 C552 371.34 552 370.68 552 370 C551.34 370 550.68 370 550 370 Z M751 370 C751 370.66 751 371.32 751 372 C751.66 372 752.32 372 753 372 C753 371.34 753 370.68 753 370 C752.34 370 751.68 370 751 370 Z M437 371 C437.66 371.66 438.32 372.32 439 373 C439 372.34 439 371.68 439 371 C438.34 371 437.68 371 437 371 Z M545 374 C545 374.66 545 375.32 545 376 C545.66 375.67 546.32 375.34 547 375 C546.34 374.67 545.68 374.34 545 374 Z M553 375 C553 375.66 553 376.32 553 377 C553.66 377 554.32 377 555 377 C555 376.34 555 375.68 555 375 C554.34 375 553.68 375 553 375 Z M647 380 C648 382 648 382 648 382 Z M640 384 C641 386 641 386 641 386 Z M636 387 C636 387.66 636 388.32 636 389 C636.66 389 637.32 389 638 389 C638 388.34 638 387.68 638 387 C637.34 387 636.68 387 636 387 Z M781 389 C782 391 782 391 782 391 Z M409 397 C410 399 410 399 410 399 Z M479 406 C480 408 480 408 480 408 Z M485 411 C485 411.66 485 412.32 485 413 C485.66 413 486.32 413 487 413 C487 412.34 487 411.68 487 411 C486.34 411 485.68 411 485 411 Z M570 410 C569.34 410.66 568.68 411.32 568 412 C568.99 412 569.98 412 571 412 C570.67 411.34 570.34 410.68 570 410 Z M707 411 C706.67 411.66 706.34 412.32 706 413 C706.66 413 707.32 413 708 413 C707.67 412.34 707.34 411.68 707 411 Z M702 415 C702 415.66 702 416.32 702 417 C702.66 416.67 703.32 416.34 704 416 C703.34 415.67 702.68 415.34 702 415 Z M733 415 C732.67 415.66 732.34 416.32 732 417 C732.66 417 733.32 417 734 417 C733.67 416.34 733.34 415.68 733 415 Z M408 444 C408 444.66 408 445.32 408 446 C408.66 446 409.32 446 410 446 C410 445.34 410 444.68 410 444 C409.34 444 408.68 444 408 444 Z M493 444 C492.67 444.66 492.34 445.32 492 446 C492.66 446 493.32 446 494 446 C493.67 445.34 493.34 444.68 493 444 Z M697 444 C697 444.66 697 445.32 697 446 C697.66 445.67 698.32 445.34 699 445 C698.34 444.67 697.68 444.34 697 444 Z M723 444 C724 446 724 446 724 446 Z M411 447 C411 447.66 411 448.32 411 449 C411.66 448.67 412.32 448.34 413 448 C412.34 447.67 411.68 447.34 411 447 Z M621 448 C622 450 622 450 622 450 Z M579 449 C580 451 580 451 580 451 Z M411 455 C412 457 412 457 412 457 Z M629 461 C629 461.66 629 462.32 629 463 C629.66 463 630.32 463 631 463 C631 462.34 631 461.68 631 461 C630.34 461 629.68 461 629 461 Z M625 464 C626 466 626 466 626 466 Z M534 465 C533.67 465.66 533.34 466.32 533 467 C533.99 466.67 534.98 466.34 536 466 C535.34 465.67 534.68 465.34 534 465 Z M781 470 C780.34 471.32 779.68 472.64 779 474 C779.99 473.34 780.98 472.68 782 472 C781.67 471.34 781.34 470.68 781 470 Z M591 472 C591 472.99 591 473.98 591 475 C591.66 475 592.32 475 593 475 C592.67 474.01 592.34 473.02 592 472 C591.67 472 591.34 472 591 472 Z M604 472 C605 474 605 474 605 474 Z M428 473 C427.67 473.66 427.34 474.32 427 475 C427.66 475 428.32 475 429 475 C428.67 474.34 428.34 473.68 428 473 Z M524 484 C525 486 525 486 525 486 Z M527 487 C527 487.66 527 488.32 527 489 C527.99 488.67 528.98 488.34 530 488 C529.01 487.67 528.02 487.34 527 487 Z M760 489 C761 491 761 491 761 491 Z M748 492 C748 492.66 748 493.32 748 494 C748.99 493.67 749.98 493.34 751 493 C750.01 492.67 749.02 492.34 748 492 Z M508 493 C507.67 494.32 507.34 495.64 507 497 C507.66 495.68 508.32 494.36 509 493 C508.67 493 508.34 493 508 493 Z M450 497 C449.67 497.66 449.34 498.32 449 499 C449.66 499 450.32 499 451 499 C450.67 498.34 450.34 497.68 450 497 Z M724 507 C724.33 507.66 724.66 508.32 725 509 C725.66 509 726.32 509 727 509 C727 508.34 727 507.68 727 507 C726.01 507 725.02 507 724 507 Z M633 528 C632.67 528.66 632.34 529.32 632 530 C632.66 530 633.32 530 634 530 C633.67 529.34 633.34 528.68 633 528 Z M582 530 C583 532 583 532 583 532 Z M465 533 C464.67 533.66 464.34 534.32 464 535 C464.66 535 465.32 535 466 535 C465.67 534.34 465.34 533.68 465 533 Z M576 533 C576 533.66 576 534.32 576 535 C576.66 535 577.32 535 578 535 C578 534.34 578 533.68 578 533 C577.34 533 576.68 533 576 533 Z M627 533 C627.33 533.99 627.66 534.98 628 536 C628 535.01 628 534.02 628 533 C627.67 533 627.34 533 627 533 Z M639 533 C640 535 640 535 640 535 Z M462 543 C461.67 543.66 461.34 544.32 461 545 C461.66 545 462.32 545 463 545 C462.67 544.34 462.34 543.68 462 543 Z M666 550 C666 550.66 666 551.32 666 552 C666.66 551.67 667.32 551.34 668 551 C667.34 550.67 666.68 550.34 666 550 Z M738 550 C738.33 550.99 738.66 551.98 739 553 C739 552.01 739 551.02 739 550 C738.67 550 738.34 550 738 550 Z M659 553 C660 556 660 556 660 556 Z M743 554 C742.01 554.495 742.01 554.495 741 555 C741 555.66 741 556.32 741 557 C741.99 556.67 742.98 556.34 744 556 C743.67 555.34 743.34 554.68 743 554 Z M531 564 C532 566 532 566 532 566 Z M531 571 C532 573 532 573 532 573 Z M534 579 C534 580.32 534 581.64 534 583 C534.33 581.68 534.66 580.36 535 579 C534.67 579 534.34 579 534 579 Z M536 584 C537 586 537 586 537 586 Z M531 587 C532 589 532 589 532 589 Z M743 593 C744 595 744 595 744 595 Z M546 600 C545.67 600.66 545.34 601.32 545 602 C546.32 601.67 547.64 601.34 549 601 C548.01 600.67 547.02 600.34 546 600 Z M555 601 C555.66 601.66 556.32 602.32 557 603 C557 602.34 557 601.68 557 601 C556.34 601 555.68 601 555 601 Z M639 603 C639 603.66 639 604.32 639 605 C639.66 605 640.32 605 641 605 C641 604.34 641 603.68 641 603 C640.34 603 639.68 603 639 603 Z M620 608 C620 608.66 620 609.32 620 610 C620.66 610 621.32 610 622 610 C622 609.34 622 608.68 622 608 C621.34 608 620.68 608 620 608 Z M644 608 C644.66 608.66 645.32 609.32 646 610 C646 609.34 646 608.68 646 608 C645.34 608 644.68 608 644 608 Z M748 609 C749 611 749 611 749 611 Z M736 613 C737 615 737 615 737 615 Z M483 627 C484 629 484 629 484 629 Z M639 629 C640 631 640 631 640 631 Z M483 639 C482.67 639.66 482.34 640.32 482 641 C482.99 641 483.98 641 485 641 C485 640.34 485 639.68 485 639 C484.34 639 483.68 639 483 639 Z M491 641 C491.33 641.66 491.66 642.32 492 643 C492.99 642.67 493.98 642.34 495 642 C493.68 641.67 492.36 641.34 491 641 Z M490 647 C494 648 494 648 494 648 Z M514 656 C514.66 656.66 515.32 657.32 516 658 C516 657.34 516 656.68 516 656 C515.34 656 514.68 656 514 656 Z M529 657 C529.33 657.66 529.66 658.32 530 659 C530.33 658.34 530.66 657.68 531 657 C530.34 657 529.68 657 529 657 Z M540 663 C540.33 663.99 540.66 664.98 541 666 C541.33 665.01 541.66 664.02 542 663 C541.34 663 540.68 663 540 663 Z M509 664 C509.66 664.66 510.32 665.32 511 666 C511.33 665.34 511.66 664.68 512 664 C511.01 664 510.02 664 509 664 Z M592 675 C592 675.66 592 676.32 592 677 C592.66 676.67 593.32 676.34 594 676 C593.34 675.67 592.68 675.34 592 675 Z M618 687 C619 689 619 689 619 689 Z M625 687 C625 687.66 625 688.32 625 689 C625.99 688.67 626.98 688.34 628 688 C627.01 687.67 626.02 687.34 625 687 Z M622 690 C622.33 690.66 622.66 691.32 623 692 C623.33 691.34 623.66 690.68 624 690 C623.34 690 622.68 690 622 690 Z M553 699 C554 701 554 701 554 701 Z M642 699 C641.67 699.66 641.34 700.32 641 701 C641.66 701 642.32 701 643 701 C642.67 700.34 642.34 699.68 642 699 Z M640 704 C641 706 641 706 641 706 Z M550 717 C550.66 717.66 551.32 718.32 552 719 C552 718.34 552 717.68 552 717 C551.34 717 550.68 717 550 717 Z M483 719 C484 722 484 722 484 722 Z M553 720 C554 722 554 722 554 722 Z M483 735 C484 737 484 737 484 737 Z M490 736 C490.33 736.66 490.66 737.32 491 738 C491.33 737.34 491.66 736.68 492 736 C491.34 736 490.68 736 490 736 Z M493 740 C493.66 740.66 494.32 741.32 495 742 C495 741.34 495 740.68 495 740 C494.34 740 493.68 740 493 740 Z M564 740 C564.66 740.66 565.32 741.32 566 742 C566 741.34 566 740.68 566 740 C565.34 740 564.68 740 564 740 Z M571 740 C571.99 741.485 571.99 741.485 573 743 C573.33 742.01 573.66 741.02 574 740 C573.01 740 572.02 740 571 740 Z M483 745 C484 749 484 749 484 749 Z M504 757 C504.66 757.66 505.32 758.32 506 759 C506 758.34 506 757.68 506 757 C505.34 757 504.68 757 504 757 Z M697 759 C697.33 759.66 697.66 760.32 698 761 C698.33 760.34 698.66 759.68 699 759 C698.34 759 697.68 759 697 759 Z M584 762 C585 764 585 764 585 764 Z M680 772 C680.66 772.66 681.32 773.32 682 774 C682 773.34 682 772.68 682 772 C681.34 772 680.68 772 680 772 Z M677 776 C677 776.66 677 777.32 677 778 C677.66 778 678.32 778 679 778 C679 777.34 679 776.68 679 776 C678.34 776 677.68 776 677 776 Z M687 779 C687.33 779.99 687.66 780.98 688 782 C688.33 781.01 688.66 780.02 689 779 C688.34 779 687.68 779 687 779 Z M683 783 C684 785 684 785 684 785 Z M522 788 C523 790 523 790 523 790 Z M642 791 C643.485 791.99 643.485 791.99 645 793 C645.33 792.34 645.66 791.68 646 791 C644.68 791 643.36 791 642 791 Z M668 795 C669 797 669 797 669 797 Z M531 797 C532 799 532 799 532 799 Z M671 798 C672 800 672 800 672 800 Z M595 805 C595.66 805.66 596.32 806.32 597 807 C597 806.34 597 805.68 597 805 C596.34 805 595.68 805 595 805 Z M519 809 C520 811 520 811 520 811 Z M618 811 C619 813 619 813 619 813 Z M584 812 C585 814 585 814 585 814 Z M522 819 C523 821 523 821 523 821 Z M623 819 C624 821 624 821 624 821 Z M625 826 C626 828 626 828 626 828 Z M587 843 C587 843.66 587 844.32 587 845 C587.66 845 588.32 845 589 845 C589 844.34 589 843.68 589 843 C588.34 843 587.68 843 587 843 Z M587 848 C588 850 588 850 588 850 Z M524 850 C525 852 525 852 525 852 Z M657 868 C656.67 868.99 656.34 869.98 656 871 C656.66 871 657.32 871 658 871 C657.67 870.01 657.34 869.02 657 868 Z M652 875 C656 876 656 876 656 876 Z M667 880 C667.33 880.66 667.66 881.32 668 882 C668.66 881.67 669.32 881.34 670 881 C669.01 880.67 668.02 880.34 667 880 Z M637 882 C638 885 638 885 638 885 Z M553 883 C554 885 554 885 554 885 Z M618 909 C619 911 619 911 619 911 Z M661 913 C661.33 913.66 661.66 914.32 662 915 C662.33 914.34 662.66 913.68 663 913 C662.34 913 661.68 913 661 913 Z M581 917 C581 917.66 581 918.32 581 919 C581.66 919 582.32 919 583 919 C583 918.34 583 917.68 583 917 C582.34 917 581.68 917 581 917 Z M666 921 C667 923 667 923 667 923 Z M586 924 C586 924.66 586 925.32 586 926 C586.66 926 587.32 926 588 926 C588 925.34 588 924.68 588 924 C587.34 924 586.68 924 586 924 Z M618 926 C618.33 926.99 618.66 927.98 619 929 C619.33 928.01 619.66 927.02 620 926 C619.34 926 618.68 926 618 926 Z M579 927 C580 929 580 929 580 929 Z M664 930 C665 934 665 934 665 934 Z M588 932 C589 934 589 934 589 934 Z M548 952 C549 955 549 955 549 955 Z M552 956 C551.67 956.66 551.34 957.32 551 958 C551.99 958 552.98 958 554 958 C554 957.34 554 956.68 554 956 C553.34 956 552.68 956 552 956 Z M646 956 C646 956.66 646 957.32 646 958 C646.66 958 647.32 958 648 958 C648 957.34 648 956.68 648 956 C647.34 956 646.68 956 646 956 Z M565 959 C566 962 566 962 566 962 Z M628 963 C627.67 963.66 627.34 964.32 627 965 C627.66 965 628.32 965 629 965 C628.67 964.34 628.34 963.68 628 963 Z M637 964 C638 967 638 967 638 967 Z M646 968 C646.33 968.66 646.66 969.32 647 970 C647.33 969.34 647.66 968.68 648 968 C647.34 968 646.68 968 646 968 Z M644 970 C645 972 645 972 645 972 Z M588 985 C588.66 985.66 589.32 986.32 590 987 C590 986.34 590 985.68 590 985 C589.34 985 588.68 985 588 985 Z M584 997 C585 999 585 999 585 999 Z M648 1001 C648 1001.66 648 1002.32 648 1003 C648.66 1002.67 649.32 1002.34 650 1002 C649.34 1001.67 648.68 1001.34 648 1001 Z M638 1021 C636.515 1022.98 636.515 1022.98 635 1025 C636.32 1024.34 637.64 1023.68 639 1023 C638.67 1022.34 638.34 1021.68 638 1021 Z M630 1028 C630 1028.66 630 1029.32 630 1030 C630.66 1030 631.32 1030 632 1030 C632 1029.34 632 1028.68 632 1028 C631.34 1028 630.68 1028 630 1028 Z M627 1037 C628 1039 628 1039 628 1039 Z M592 1047 C591.67 1047.66 591.34 1048.32 591 1049 C591.66 1049 592.32 1049 593 1049 C592.67 1048.34 592.34 1047.68 592 1047 Z M582 1057 C583 1059 583 1059 583 1059 Z M587 1060 C586.67 1060.66 586.34 1061.32 586 1062 C586.66 1062 587.32 1062 588 1062 C587.67 1061.34 587.34 1060.68 587 1060 Z M622 1071 C623 1073 623 1073 623 1073 Z M613 1100 C613.33 1100.66 613.66 1101.32 614 1102 C614.33 1101.34 614.66 1100.68 615 1100 C614.34 1100 613.68 1100 613 1100 Z M595 1105 C595.66 1105.66 596.32 1106.32 597 1107 C597 1106.34 597 1105.68 597 1105 C596.34 1105 595.68 1105 595 1105 Z M601 1107 C601 1107.66 601 1108.32 601 1109 C601.66 1109 602.32 1109 603 1109 C603 1108.34 603 1107.68 603 1107 C602.34 1107 601.68 1107 601 1107 Z " fill="#FEFEFE" transform="translate(40,40)"/>
</svg>
