<?xml version="1.0" encoding="UTF-8"?>
<svg version="1.1" xmlns="http://www.w3.org/2000/svg" width="500" height="500">
<path d="M0 0 C1.9307451 1.07034909 3.67705342 1.57602864 5.83203125 2.015625 C5.83203125 2.675625 5.83203125 3.335625 5.83203125 4.015625 C6.55406738 4.14163086 7.27610352 4.26763672 8.02001953 4.39746094 C10.78296352 5.00483845 13.20408146 5.84816585 15.82421875 6.90625 C16.76966553 7.28378418 17.7151123 7.66131836 18.68920898 8.05029297 C19.68509033 8.45135254 20.68097168 8.85241211 21.70703125 9.265625 C29.59891102 12.4035173 37.48695272 15.36607222 45.578125 17.9453125 C47.95224648 18.72623601 50.24936191 19.55576663 52.57421875 20.4609375 C57.46723579 22.31209683 62.46319805 23.68625636 67.51953125 25.015625 C68.50961182 25.27617676 69.49969238 25.53672852 70.51977539 25.80517578 C80.52312453 28.34271132 90.59363348 29.81110761 100.83203125 31.015625 C100.83203125 32.335625 100.83203125 33.655625 100.83203125 35.015625 C99.84203125 35.345625 98.85203125 35.675625 97.83203125 36.015625 C97.83203125 36.675625 97.83203125 37.335625 97.83203125 38.015625 C90.88221553 45.16984707 81.42363554 48.07702056 71.68579102 48.48803711 C59.50291484 48.64318926 48.56282543 45.63093535 37.59765625 40.3125 C33.41353801 38.35045585 29.09927958 36.75892382 24.77734375 35.12890625 C22.11517554 34.12264903 19.47067474 33.08179276 16.83203125 32.015625 C33.50183278 40.13254902 49.74507033 47.65423017 67.83203125 52.015625 C66.83203125 55.015625 66.83203125 55.015625 64.6796875 56.33203125 C49.54744223 63.10227843 36.9033953 63.03698427 21.3125 57.359375 C17.07036576 55.72155886 12.9413851 53.96216104 8.83203125 52.015625 C10.81203125 53.005625 10.81203125 53.005625 12.83203125 54.015625 C12.83203125 54.675625 12.83203125 55.335625 12.83203125 56.015625 C13.35667969 56.13035156 13.88132812 56.24507813 14.421875 56.36328125 C17.49859667 57.1960406 20.41855285 58.312164 23.39453125 59.453125 C24.53019531 59.88496094 25.66585937 60.31679687 26.8359375 60.76171875 C29.83203125 62.015625 29.83203125 62.015625 32.83203125 64.015625 C32.83203125 64.675625 32.83203125 65.335625 32.83203125 66.015625 C20.65295069 72.07574721 10.44395833 73.12590081 -2.52734375 69.046875 C-7.32068997 67.1749173 -11.73873588 64.6175888 -16.16796875 62.015625 C-11.74354283 65.72643383 -6.99392944 68.86140233 -2.16796875 72.015625 C-2.94921875 73.9375 -2.94921875 73.9375 -4.16796875 76.015625 C-15.51012244 80.06639417 -24.37812791 77.75097835 -35.16796875 73.015625 C-34.50796875 73.44875 -33.84796875 73.881875 -33.16796875 74.328125 C-32.50796875 74.885 -31.84796875 75.441875 -31.16796875 76.015625 C-31.16796875 77.005625 -31.16796875 77.995625 -31.16796875 79.015625 C-36.00379672 81.81590678 -40.71959288 81.75305301 -46.16796875 81.015625 C-49.7103616 79.66546995 -52.93098038 77.98169169 -56.16796875 76.015625 C-56.16796875 76.675625 -56.16796875 77.335625 -56.16796875 78.015625 C-55.17796875 78.345625 -54.18796875 78.675625 -53.16796875 79.015625 C-54.66796875 80.9921875 -54.66796875 80.9921875 -57.16796875 83.015625 C-59.98995812 83.36249453 -62.36487901 83.48710816 -65.16796875 83.390625 C-65.87953125 83.38933594 -66.59109375 83.38804687 -67.32421875 83.38671875 C-71.07187478 83.32379169 -73.98812116 83.08583827 -77.16796875 81.015625 C-77.16796875 80.355625 -77.16796875 79.695625 -77.16796875 79.015625 C-77.74546875 78.78875 -78.32296875 78.561875 -78.91796875 78.328125 C-83.82768255 75.46412528 -85.70585549 71.32137224 -87.16796875 66.015625 C-87.75666731 57.68404363 -87.11476681 49.30010806 -86.16796875 41.015625 C-85.58789062 41.12261719 -85.0078125 41.22960937 -84.41015625 41.33984375 C-79.03665847 42.16448945 -75.87091105 42.15091987 -71.16796875 39.015625 C-70.14995518 38.03396906 -69.14328845 37.03971068 -68.16796875 36.015625 C-67.50796875 36.015625 -66.84796875 36.015625 -66.16796875 36.015625 C-64.23014285 30.08103319 -63.20260514 25.03238628 -65.16796875 18.890625 C-67.15495147 12.52652092 -67.68430495 4.10168387 -64.66796875 -1.984375 C-49.33045319 -20.38939367 -17.33737198 -10.80593599 0 0 Z M7.83203125 27.015625 C8.16203125 27.675625 8.49203125 28.335625 8.83203125 29.015625 C9.49203125 28.685625 10.15203125 28.355625 10.83203125 28.015625 C9.84203125 27.685625 8.85203125 27.355625 7.83203125 27.015625 Z M0.83203125 48.015625 C2.81203125 49.005625 2.81203125 49.005625 4.83203125 50.015625 C4.50203125 49.355625 4.17203125 48.695625 3.83203125 48.015625 C2.84203125 48.015625 1.85203125 48.015625 0.83203125 48.015625 Z M-38.16796875 70.015625 C-37.50796875 70.675625 -36.84796875 71.335625 -36.16796875 72.015625 C-36.16796875 71.355625 -36.16796875 70.695625 -36.16796875 70.015625 C-36.82796875 70.015625 -37.48796875 70.015625 -38.16796875 70.015625 Z " fill="#0D0D0D" transform="translate(349.16796875,60.984375)"/>
<path d="M0 0 C3.11722579 2.54928403 5.48057459 4.76510332 6.88671875 8.60546875 C7.38672201 14.98786327 7.64094192 21.85127958 5.82421875 28.04296875 C4.71311223 32.26517353 4.4665099 35.45281129 5.88671875 39.60546875 C8.85019486 44.43197707 12.50008251 47.69770175 17.88671875 49.60546875 C21.3741443 49.87899232 23.56463213 49.71283096 26.88671875 48.60546875 C28.03179732 53.76979605 28.10743838 58.7100029 28.13671875 63.98046875 C28.16765625 65.36105469 28.16765625 65.36105469 28.19921875 66.76953125 C28.23777589 73.51703003 27.47878915 78.30373638 23.203125 83.75 C22.62433594 84.30042969 22.04554688 84.85085937 21.44921875 85.41796875 C20.87300781 85.98128906 20.29679688 86.54460937 19.703125 87.125 C15.34276902 90.67892455 12.01463255 90.87762589 6.38671875 90.85546875 C5.07703125 90.860625 3.76734375 90.86578125 2.41796875 90.87109375 C-0.76570197 90.63161409 -2.47430654 90.3019525 -5.11328125 88.60546875 C-5.11328125 87.61546875 -5.11328125 86.62546875 -5.11328125 85.60546875 C-8.90876046 86.57322973 -8.90876046 86.57322973 -12.11328125 88.60546875 C-14.04770025 88.73130841 -15.98730888 88.78124884 -17.92578125 88.79296875 C-18.98410156 88.80714844 -20.04242188 88.82132812 -21.1328125 88.8359375 C-24.03374385 88.61161909 -25.66146478 88.10742896 -28.11328125 86.60546875 C-27.06453127 83.98359381 -26.46396812 82.81175514 -23.98828125 81.35546875 C-23.36953125 81.10796875 -22.75078125 80.86046875 -22.11328125 80.60546875 C-22.11328125 79.94546875 -22.11328125 79.28546875 -22.11328125 78.60546875 C-22.44328125 78.93546875 -22.77328125 79.26546875 -23.11328125 79.60546875 C-31.54696085 84.8343501 -39.83625818 87.19834037 -49.71875 85.03515625 C-54.1324326 83.70192939 -54.1324326 83.70192939 -56.11328125 82.60546875 C-56.44328125 81.61546875 -56.77328125 80.62546875 -57.11328125 79.60546875 C-54.8450048 78.12224967 -52.57386222 76.64379176 -50.30078125 75.16796875 C-49.65818359 74.74708984 -49.01558594 74.32621094 -48.35351562 73.89257812 C-45.62938021 72.12824171 -43.20575954 70.63629485 -40.11328125 69.60546875 C-43.72333505 69.60546875 -44.9729851 70.56497667 -47.98828125 72.48046875 C-58.20545548 78.94822124 -67.48948224 80.44684546 -79.27734375 78.19140625 C-83.82311465 77.15588315 -87.89678573 75.5380292 -92.11328125 73.60546875 C-92.11328125 72.94546875 -92.11328125 72.28546875 -92.11328125 71.60546875 C-91.07429688 71.16976562 -90.0353125 70.7340625 -88.96484375 70.28515625 C-80.98824675 66.89491115 -73.38508433 63.37758952 -66.11328125 58.60546875 C-66.87620483 58.95327393 -66.87620483 58.95327393 -67.65454102 59.30810547 C-69.99270418 60.37059315 -72.33418721 61.42556512 -74.67578125 62.48046875 C-75.87557617 63.02767578 -75.87557617 63.02767578 -77.09960938 63.5859375 C-89.28369721 69.05634428 -102.05180511 71.54891884 -115.11328125 67.60546875 C-118.61426336 66.20983915 -122.00900818 64.75802024 -125.11328125 62.60546875 C-125.44328125 61.61546875 -125.77328125 60.62546875 -126.11328125 59.60546875 C-125.15808594 59.37472656 -124.20289063 59.14398438 -123.21875 58.90625 C-116.25193326 57.17088587 -109.75464978 55.24539434 -103.2734375 52.09765625 C-98.20535783 49.70457042 -93.01413786 47.60431245 -87.83691406 45.45996094 C-83.50901831 43.65562997 -79.27986215 41.76591811 -75.11328125 39.60546875 C-80.05700411 41.17776036 -84.82432374 43.06089583 -89.61328125 45.04296875 C-90.34675781 45.34267578 -91.08023438 45.64238281 -91.8359375 45.95117188 C-95.03231568 47.26917755 -98.14027599 48.61923742 -101.22265625 50.19140625 C-113.73557951 56.31259303 -130.03327157 58.41954815 -143.36328125 53.85546875 C-147.25537951 52.16196035 -150.73653547 50.19692481 -154.11328125 47.60546875 C-154.95052734 46.98285156 -154.95052734 46.98285156 -155.8046875 46.34765625 C-157.48828125 45.04296875 -157.48828125 45.04296875 -160.11328125 42.60546875 C-160.11328125 41.61546875 -160.11328125 40.62546875 -160.11328125 39.60546875 C-155.24762235 38.6219913 -150.38150475 37.64807641 -145.5 36.74609375 C-128.25471343 33.51328628 -111.72396828 28.91035331 -95.45703125 22.32421875 C-91.14466133 20.58686108 -86.76620035 19.09417187 -82.36328125 17.60546875 C-75.75963136 15.34196543 -69.71550067 12.55139884 -63.51171875 9.3359375 C-46.38766635 0.61644875 -18.43995705 -12.16832655 0 0 Z M-65.11328125 32.60546875 C-65.44328125 33.26546875 -65.77328125 33.92546875 -66.11328125 34.60546875 C-65.12328125 34.27546875 -64.13328125 33.94546875 -63.11328125 33.60546875 C-63.77328125 33.27546875 -64.43328125 32.94546875 -65.11328125 32.60546875 Z M-69.11328125 34.60546875 C-69.44328125 35.26546875 -69.77328125 35.92546875 -70.11328125 36.60546875 C-68.79328125 35.94546875 -67.47328125 35.28546875 -66.11328125 34.60546875 C-67.10328125 34.60546875 -68.09328125 34.60546875 -69.11328125 34.60546875 Z M-73.11328125 36.60546875 C-73.44328125 37.26546875 -73.77328125 37.92546875 -74.11328125 38.60546875 C-72.79328125 37.94546875 -71.47328125 37.28546875 -70.11328125 36.60546875 C-71.10328125 36.60546875 -72.09328125 36.60546875 -73.11328125 36.60546875 Z M-60.11328125 54.60546875 C-60.77328125 55.26546875 -61.43328125 55.92546875 -62.11328125 56.60546875 C-61.12328125 56.60546875 -60.13328125 56.60546875 -59.11328125 56.60546875 C-59.44328125 55.94546875 -59.77328125 55.28546875 -60.11328125 54.60546875 Z " fill="#0B0C0B" transform="translate(210.11328125,53.39453125)"/>
<path d="M0 0 C0 0.66 0 1.32 0 2 C1.98 2.99 1.98 2.99 4 4 C4 4.66 4 5.32 4 6 C4.66 6 5.32 6 6 6 C9.65254161 12.60392568 11.22118049 18.46053786 10 26 C7.76551582 32.59885967 4.2964183 37.52746899 -1 42 C-1.66 42 -2.32 42 -3 42 C-3 42.66 -3 43.32 -3 44 C-22.02194816 53.63277129 -39.63034766 57.60870602 -60.6628418 60.53027344 C-72.13246316 62.0776265 -72.13246316 62.0776265 -83.4375 64.5 C-84.41074219 64.75394531 -85.38398438 65.00789063 -86.38671875 65.26953125 C-89.2946138 66.08235094 -92.15980354 66.9743735 -95 68 C-95 68.66 -95 69.32 -95 70 C-96.6454378 71.68762851 -98.31288577 73.3540349 -100 75 C-101.64694953 78.29389906 -101.61190331 81.45345836 -101 85 C-98.01837285 92.0714697 -92.33206109 94.60107269 -85.64428711 97.57714844 C-79.85201016 99.83864707 -73.93523989 101.21836136 -67.875 102.5625 C-59.04008354 104.53809884 -51.09747847 106.91351939 -43 111 C-42.33895264 111.32403809 -41.67790527 111.64807617 -40.99682617 111.98193359 C-39.65825395 112.64200356 -38.32765246 113.31823252 -37 114 C-37 114.66 -37 115.32 -37 116 C-36.40316406 116.26425781 -35.80632812 116.52851563 -35.19140625 116.80078125 C-30.39615307 119.42492158 -26.40179281 124.71091887 -24.46875 129.78515625 C-22.84529851 137.45596454 -22.76780219 146.25493474 -27 153 C-35.30301224 165.18667926 -48.7216812 169.98901447 -62.31640625 173.9140625 C-70.66712304 176.3345477 -70.66712304 176.3345477 -78.140625 180.6171875 C-80 182 -80 182 -82 182 C-82.02712066 183.43739513 -82.04645067 184.87493863 -82.0625 186.3125 C-82.07410156 187.11300781 -82.08570313 187.91351563 -82.09765625 188.73828125 C-82.09657855 191.16861334 -82.09657855 191.16861334 -81 194 C-80.195625 194.309375 -79.39125 194.61875 -78.5625 194.9375 C-75.51267804 196.20206032 -75.26781609 197.08107459 -74 200 C-75.57934639 200.98558449 -77.16365173 201.96322541 -78.75 202.9375 C-79.63171875 203.48277344 -80.5134375 204.02804687 -81.421875 204.58984375 C-85.63868198 206.89630939 -85.63868198 206.89630939 -88 207 C-93.18072415 203.68685059 -98.27503126 198.97989163 -100 193 C-100.83211249 185.46831512 -100.45741689 179.27557378 -96 173 C-89.00391609 164.4048112 -77.2337201 160.45056959 -66.875 157.5 C-59.94256297 155.48665487 -54.5727002 152.58928252 -49 148 C-48.34 148 -47.68 148 -47 148 C-45.64485864 143.93457592 -45.34089564 140.24672924 -46 136 C-50.75472037 129.70698775 -57.41628347 126.52363609 -64.875 124.5 C-65.98548706 124.18482422 -65.98548706 124.18482422 -67.1184082 123.86328125 C-72.11510212 122.46278524 -77.14363603 121.2169087 -82.1875 120 C-92.23822768 117.56315978 -102.23608213 114.6339472 -111 109 C-111 108.34 -111 107.68 -111 107 C-111.5878125 106.89558594 -112.175625 106.79117188 -112.78125 106.68359375 C-116.88324054 105.41977624 -119.43013576 102.32887066 -122 99 C-123.64011737 95.75413898 -124.87654724 92.45491925 -126 89 C-126.33 88.01 -126.66 87.02 -127 86 C-128.10678979 75.09539898 -124.99341791 67.10272865 -118.46484375 58.49609375 C-117 57 -117 57 -114 56 C-114 55.34 -114 54.68 -114 54 C-98.13551911 42.57982404 -78.30819038 39.67701406 -59.25 38.5625 C-43.13132793 37.50254197 -24.77460895 35.84892479 -12 25 C-9.44637639 22.1584419 -9.44637639 22.1584419 -9.0625 18.5 C-10.23768859 15.36616375 -11.29709423 13.99161478 -14 12 C-17.18649405 10.72070579 -17.18649405 10.72070579 -21 11 C-22.52914117 11.75622981 -24.02735205 12.57641681 -25.5 13.4375 C-31.98866715 17.01024771 -38.76661131 16.96445183 -46 16 C-51.29268293 13.70731707 -51.29268293 13.70731707 -53 12 C-53.5625 8.875 -53.5625 8.875 -53 5 C-40.36924311 -10.35749597 -16.13281502 -8.79195739 0 0 Z M-40 2 C-40.33 2.66 -40.66 3.32 -41 4 C-40.01 4 -39.02 4 -38 4 C-38 3.34 -38 2.68 -38 2 C-38.66 2 -39.32 2 -40 2 Z " fill="#111111" transform="translate(319,158)"/>
<path d="M0 0 C1.8125 1.20833333 3.625 2.41666667 5.4375 3.625 C5.4375 4.285 5.4375 4.945 5.4375 5.625 C6.0975 5.625 6.7575 5.625 7.4375 5.625 C10.88718317 12.2779604 12.90481028 17.53716673 10.77734375 24.9140625 C8.35514898 31.1845061 4.48457166 35.60146417 -1.5625 38.625 C1.4075 39.285 4.3775 39.945 7.4375 40.625 C7.4375 43.595 7.4375 46.565 7.4375 49.625 C5.4575 49.625 3.4775 49.625 1.4375 49.625 C1.42719254 50.44867065 1.41688507 51.27234131 1.40626526 52.12097168 C1.30702469 60.00139822 1.20436771 67.881772 1.09816074 75.76210785 C1.043712 79.8104602 0.99044535 83.85881987 0.94018555 87.90722656 C0.5546402 118.82914361 0.5546402 118.82914361 -0.03515625 133.40625 C-0.07225204 134.34351929 -0.10934784 135.28078857 -0.14756775 136.24645996 C-0.38027599 141.42084922 -0.8496135 146.49430404 -1.5625 151.625 C-5.533135 152.30085277 -9.28508108 152.68591937 -13.31640625 152.65625 C-14.11506104 152.65173828 -14.91371582 152.64722656 -15.73657227 152.64257812 C-16.64040649 152.63387695 -16.64040649 152.63387695 -17.5625 152.625 C-19.06677774 127.20230607 -19.75324267 101.83795936 -19.6875 76.375 C-19.68578796 75.70715359 -19.68407593 75.03930717 -19.68231201 74.35122299 C-19.65960623 66.10904026 -19.61956547 57.86701408 -19.5625 49.625 C-21.8725 49.625 -24.1825 49.625 -26.5625 49.625 C-26.7578125 43.5703125 -26.7578125 43.5703125 -26.5625 41.625 C-23.80026722 38.86276722 -21.35543383 39.04643709 -17.5625 38.625 C-18.0678125 38.28726563 -18.573125 37.94953125 -19.09375 37.6015625 C-20.06828125 36.93253906 -20.06828125 36.93253906 -21.0625 36.25 C-21.7121875 35.80914062 -22.361875 35.36828125 -23.03125 34.9140625 C-23.5365625 34.48867187 -24.041875 34.06328125 -24.5625 33.625 C-24.5625 32.965 -24.5625 32.305 -24.5625 31.625 C-25.2225 31.625 -25.8825 31.625 -26.5625 31.625 C-29.85073496 24.19711209 -32.02696528 19.00035122 -29 11.125 C-23.57623703 -0.32087701 -11.74486181 -4.53310456 0 0 Z " fill="#121212" transform="translate(259.5625,42.375)"/>
<path d="M0 0 C1 1 1 1 1.4375 4.3125 C1 8 1 8 -1.55859375 10.20703125 C-5.54822165 12.28562286 -8.0293323 12.47495395 -12.5 12.375 C-13.7684375 12.36210937 -15.036875 12.34921875 -16.34375 12.3359375 C-19.86987164 12.01195624 -22.70860306 11.26982907 -26 10 C-26 9.34 -26 8.68 -26 8 C-30.50358324 7.16933909 -34.00373782 6.69206442 -38.4375 8.0625 C-41.16396673 9.86290028 -41.16396673 9.86290028 -42.625 12.8125 C-43.28446849 16.06768419 -43.28446849 16.06768419 -41.625 19.0625 C-32.76951474 28.97220969 -19.46036948 31.0987102 -6.80078125 32.60546875 C-4 33 -4 33 -2 34 C-2 34.66 -2 35.32 -2 36 C-2.94359375 36.27972656 -3.8871875 36.55945313 -4.859375 36.84765625 C-11.59987392 38.92919008 -17.46148706 41.06571697 -23.4375 44.9375 C-29.38791486 48.57122001 -29.38791486 48.57122001 -33.0625 47.8125 C-34.94140625 47.0625 -34.94140625 47.0625 -37 46 C-37.87527344 45.5875 -38.75054687 45.175 -39.65234375 44.75 C-48.80972496 40.12734392 -56.47493947 34.4191174 -61 25 C-63.25903448 17.73367889 -62.3481842 10.74202546 -59 4 C-57.4375 1.5 -57.4375 1.5 -56 0 C-55.34 0 -54.68 0 -54 0 C-54 -0.66 -54 -1.32 -54 -2 C-36.38946952 -12.68046062 -15.87051427 -13.83349424 0 0 Z M-14 -2 C-13.67 -1.34 -13.34 -0.68 -13 0 C-12.34 -0.33 -11.68 -0.66 -11 -1 C-11.99 -1.33 -12.98 -1.66 -14 -2 Z " fill="#151515" transform="translate(233,162)"/>
<path d="M0 0 C0.99 0 1.98 0 3 0 C3 0.66 3 1.32 3 2 C3.66 2 4.32 2 5 2 C9.31828542 8.88226739 10.04080756 14.94374921 9 23 C7.9508348 26.02539447 6.71498939 28.26673566 5 31 C4.34 31 3.68 31 3 31 C3 31.66 3 32.32 3 33 C1.01023516 34.53294672 -0.95122778 35.9015118 -3.0625 37.25 C-3.68503662 37.65186523 -4.30757324 38.05373047 -4.94897461 38.46777344 C-10.61086731 41.99612768 -16.43367512 44.34099332 -22.72265625 46.515625 C-26.37185053 48.16841859 -28.42348419 49.95545655 -31 53 C-31.33 53.99 -31.66 54.98 -32 56 C-30.58511552 58.76239351 -29.19636905 60.80363095 -27 63 C-26.97873047 61.64455078 -26.97873047 61.64455078 -26.95703125 60.26171875 C-26.90933594 59.08222656 -26.86164063 57.90273438 -26.8125 56.6875 C-26.77769531 55.51574219 -26.74289063 54.34398437 -26.70703125 53.13671875 C-26 50 -26 50 -23.63671875 48.08203125 C-21 47 -21 47 -18 47 C-18 51.95 -18 56.9 -18 62 C-18.66 62 -19.32 62 -20 62 C-20 62.66 -20 63.32 -20 64 C-22.22109528 65.2052222 -24.4497865 66.38887404 -26.6875 67.5625 C-27.31333984 67.90474609 -27.93917969 68.24699219 -28.58398438 68.59960938 C-31.5952899 70.16044313 -33.53847632 71.04450625 -36.95703125 70.71484375 C-37.63121094 70.47894531 -38.30539063 70.24304688 -39 70 C-39 69.34 -39 68.68 -39 68 C-39.66 68 -40.32 68 -41 68 C-41 67.34 -41 66.68 -41 66 C-41.66 66 -42.32 66 -43 66 C-46.10833049 59.41033937 -46.4778454 54.15588301 -45 47 C-43.94921875 44.671875 -43.94921875 44.671875 -43 43 C-42.34 43 -41.68 43 -41 43 C-41 42.34 -41 41.68 -41 41 C-40.34 41 -39.68 41 -39 41 C-39 40.34 -39 39.68 -39 39 C-33.11416252 34.50988501 -26.95533786 31.39839237 -20 29 C-19.071875 28.443125 -18.14375 27.88625 -17.1875 27.3125 C-15 26 -15 26 -12 26 C-12 25.34 -12 24.68 -12 24 C-11.01 23.34 -10.02 22.68 -9 22 C-8.59596487 18.91923217 -8.36866332 16.95761326 -9 14 C-11.333492 11.16588845 -11.333492 11.16588845 -14 9 C-14.33 8.01 -14.66 7.02 -15 6 C-13.43840941 5.51787786 -11.87568072 5.03944127 -10.3125 4.5625 C-9.44238281 4.29566406 -8.57226562 4.02882813 -7.67578125 3.75390625 C-5.12974079 3.03655471 -2.5996577 2.482459 0 2 C0 1.34 0 0.68 0 0 Z " fill="#151515" transform="translate(272,328)"/>
<path d="M0 0 C2.25133315 1.52509665 2.93983891 2.81834728 3.9375 5.3125 C4.5975 5.3125 5.2575 5.3125 5.9375 5.3125 C10.72764274 14.65327834 12.92417599 23.51771831 10.2734375 33.91796875 C6.34333541 43.84574839 -2.09343286 50.94248528 -11.0625 56.3125 C-12.0525 56.3125 -13.0425 56.3125 -14.0625 56.3125 C-14.0625 55.6525 -14.0625 54.9925 -14.0625 54.3125 C-14.701875 54.065 -15.34125 53.8175 -16 53.5625 C-18.48697689 52.54740739 -20.92776453 51.48006654 -23.375 50.375 C-27.5474398 48.50580297 -31.76631583 46.87474879 -36.0625 45.3125 C-36.0625 44.6525 -36.0625 43.9925 -36.0625 43.3125 C-34.88171875 42.80460937 -33.7009375 42.29671875 -32.484375 41.7734375 C-30.92667468 41.07904097 -29.36940531 40.38367717 -27.8125 39.6875 C-27.03519531 39.35621094 -26.25789063 39.02492187 -25.45703125 38.68359375 C-20.43901584 36.41047566 -17.58358113 34.44045822 -15.0625 29.3125 C-14.07204428 25.15129969 -14.12568999 21.14369843 -16.09765625 17.2890625 C-19.81126283 12.55136942 -24.71181099 9.89272114 -30.0625 7.3125 C-27.64215275 4.89215275 -26.26149069 4.74334506 -22.94140625 4.05859375 C-21.41483398 3.73665039 -21.41483398 3.73665039 -19.85742188 3.40820312 C-18.25737305 3.08239258 -18.25737305 3.08239258 -16.625 2.75 C-14.52185665 2.31253598 -12.41897925 1.87379088 -10.31640625 1.43359375 C-9.38127197 1.2420874 -8.4461377 1.05058105 -7.48266602 0.85327148 C-1.4703995 -0.49013317 -1.4703995 -0.49013317 0 0 Z " fill="#131312" transform="translate(297.0625,214.6875)"/>
<path d="M0 0 C0 0.66 0 1.32 0 2 C0.66 2 1.32 2 2 2 C4.89708304 8.40470838 6.72977116 13.21431487 4.7734375 20.125 C4 22 4 22 2 25 C1.34 25 0.68 25 0 25 C-0.24621094 25.6084375 -0.49242187 26.216875 -0.74609375 26.84375 C-2.23810674 29.40945459 -3.45168612 30.13703543 -6.0625 31.5 C-7.26712891 32.13421875 -7.26712891 32.13421875 -8.49609375 32.78125 C-10.84804267 33.92603637 -13.21837812 34.9762569 -15.625 36 C-19.95201856 37.90115051 -23.45572971 39.83277974 -27 43 C-27.91666667 46 -27.91666667 46 -27 49 C-25.68 50.65 -24.36 52.3 -23 54 C-22.67 49.38 -22.34 44.76 -22 40 C-8.29832675 33.35676448 -8.29832675 33.35676448 -4 34 C-0.39362877 37.60637123 0.29959697 40.43464062 0.5 45.5 C0.28536 50.45013489 -0.49225461 53.31686734 -4 57 C-8.07894916 60.11090362 -12.59401984 62.31710284 -17.1875 64.5625 C-22.54979413 67.14200875 -22.54979413 67.14200875 -27 71 C-27.97266942 73.96432587 -28.55834331 76.91499507 -29 80 C-31.43114399 77.81921772 -32.00332223 76.98826145 -32.9375 73.6875 C-33.01444235 69.14790117 -31.82397679 67.4694572 -29 64 C-28.34 63.34 -27.68 62.68 -27 62 C-27.62648437 61.46890625 -28.25296875 60.9378125 -28.8984375 60.390625 C-29.71570313 59.68421875 -30.53296875 58.9778125 -31.375 58.25 C-32.18710938 57.55390625 -32.99921875 56.8578125 -33.8359375 56.140625 C-36.49840806 53.50698986 -37.78099987 51.56428665 -38.30078125 47.8515625 C-38.32731997 42.80920569 -37.92606094 39.29155604 -35 35 C-33.09071228 33.07543798 -31.21645176 31.60339064 -29 30 C-28.34 30 -27.68 30 -27 30 C-27 29.34 -27 28.68 -27 28 C-25.53626953 27.29423828 -25.53626953 27.29423828 -24.04296875 26.57421875 C-22.75765492 25.94563461 -21.47250733 25.31671048 -20.1875 24.6875 C-19.22360352 24.2244043 -19.22360352 24.2244043 -18.24023438 23.75195312 C-12.64737587 21.01213725 -12.64737587 21.01213725 -9.125 16.125 C-8.94278336 13.02731712 -10.20813338 11.45552093 -12 9 C-12.66 8.67 -13.32 8.34 -14 8 C-14 7.01 -14 6.02 -14 5 C-12.421924 4.15675328 -10.8372958 3.32576082 -9.25 2.5 C-8.36828125 2.0359375 -7.4865625 1.571875 -6.578125 1.09375 C-4 0 -4 0 0 0 Z M-15 39 C-15.33 44.28 -15.66 49.56 -16 55 C-9.78210842 50.89100287 -9.78210842 50.89100287 -9.3125 46.4375 C-9.75306018 42.31852267 -9.75306018 42.31852267 -15 39 Z M-18 55 C-18.33 55.66 -18.66 56.32 -19 57 C-18.01 56.67 -17.02 56.34 -16 56 C-16.66 55.67 -17.32 55.34 -18 55 Z M-22 57 C-22.33 57.66 -22.66 58.32 -23 59 C-21.68 58.34 -20.36 57.68 -19 57 C-19.99 57 -20.98 57 -22 57 Z " fill="#1F1F1F" transform="translate(269,369)"/>
<path d="M0 0 C4.61669336 1.46432565 9.25560939 2.76506332 13.9375 4 C14.61321045 4.17877686 15.2889209 4.35755371 15.98510742 4.54174805 C17.59388856 4.96665834 19.20314311 5.38977559 20.8125 5.8125 C18.08490061 8.65408861 15.17116798 10.7401304 11.8125 12.8125 C11.1525 12.8125 10.4925 12.8125 9.8125 12.8125 C9.8125 13.4725 9.8125 14.1325 9.8125 14.8125 C9.1525 14.8125 8.4925 14.8125 7.8125 14.8125 C6.61666562 18.54948244 6.40902648 21.91225601 6.8125 25.8125 C10.52298555 32.0819411 16.42751187 34.65914334 22.8125 37.8125 C22.8125 38.4725 22.8125 39.1325 22.8125 39.8125 C20.28008398 41.18698233 17.7389568 42.53671399 15.1875 43.875 C14.47464844 44.26494141 13.76179688 44.65488281 13.02734375 45.05664062 C9.6300859 46.81760456 7.45619044 47.82414699 3.57421875 47.75390625 C-3.87397019 45.21499036 -9.17883881 39.37212741 -13.1875 32.8125 C-16.23521487 26.41552957 -16.32921252 18.97820784 -14.46484375 12.17578125 C-11.77689419 5.76605537 -7.79603054 -2.57255949 0 0 Z " fill="#151515" transform="translate(220.1875,276.1875)"/>
<path d="M0 0 C0.02935775 4.29165198 0.04691802 8.58327764 0.0625 12.875 C0.07087891 14.07898438 0.07925781 15.28296875 0.08789062 16.5234375 C0.10666268 23.43155448 -0.1734738 30.14048332 -1 37 C-5.62 36.01 -10.24 35.02 -15 34 C-16.41856061 8.36458333 -16.41856061 8.36458333 -16 2 C-14.4756339 0.4756339 -12.92795873 0.66073936 -10.8125 0.4375 C-10.05582031 0.35371094 -9.29914063 0.26992187 -8.51953125 0.18359375 C-5.67286826 -0.02383751 -2.85337391 -0.01151839 0 0 Z " fill="#232322" transform="translate(258,222)"/>
<path d="M0 0 C3.60637123 3.60637123 4.29959697 6.43464062 4.5 11.5 C4.28536 16.45013489 3.50774539 19.31686734 0 23 C-4.07894916 26.11090362 -8.59401984 28.31710284 -13.1875 30.5625 C-18.54979413 33.14200875 -18.54979413 33.14200875 -23 37 C-23.97266942 39.96432587 -24.55834331 42.91499507 -25 46 C-27.43114399 43.81921772 -28.00332223 42.98826145 -28.9375 39.6875 C-29.0173545 34.97608464 -28.08327936 33.53449097 -25 30 C-21.45272032 26.97991688 -17.64537084 24.42197324 -13.75 21.875 C-10.00106981 19.32963539 -10.00106981 19.32963539 -7 16 C-6.41657647 12.45769191 -6.41657647 12.45769191 -7 9 C-7.99 8.01 -8.98 7.02 -10 6 C-10.33 9.96 -10.66 13.92 -11 18 C-11.33 18 -11.66 18 -12 18 C-12.33 14.04 -12.66 10.08 -13 6 C-14.32 5.67 -15.64 5.34 -17 5 C-15.10908264 4.15557119 -13.21202485 3.32488413 -11.3125 2.5 C-10.25675781 2.0359375 -9.20101562 1.571875 -8.11328125 1.09375 C-5.10369867 0.03643115 -3.14569299 -0.42051799 0 0 Z " fill="#2A2A2A" transform="translate(265,403)"/>
<path d="M0 0 C6 1 6 1 12 2 C12 10.91 12 19.82 12 29 C3 32 3 32 0 32 C0 21.44 0 10.88 0 0 Z " fill="#131313" transform="translate(244,283)"/>
<path d="M0 0 C0 0.66 0 1.32 0 2 C0.66 2 1.32 2 2 2 C4.33573034 5.64957865 4.45652447 8.73910491 4 13 C2 15.4375 2 15.4375 0 17 C-0.09796875 16.38511719 -0.1959375 15.77023437 -0.296875 15.13671875 C-0.44640625 14.32847656 -0.5959375 13.52023437 -0.75 12.6875 C-0.88921875 11.88699219 -1.0284375 11.08648437 -1.171875 10.26171875 C-1.96538007 7.45832813 -1.96538007 7.45832813 -6 5 C-6.66 11.93 -7.32 18.86 -8 26 C-8.99 26.33 -9.98 26.66 -11 27 C-12.2263757 24.54724859 -12.11415314 22.9494219 -12.09765625 20.2109375 C-12.09443359 19.26992188 -12.09121094 18.32890625 -12.08789062 17.359375 C-12.07951172 16.37453125 -12.07113281 15.3896875 -12.0625 14.375 C-12.05798828 13.38242187 -12.05347656 12.38984375 -12.04882812 11.3671875 C-12.03702145 8.9113984 -12.020554 6.45572896 -12 4 C-11.34 4 -10.68 4 -10 4 C-10 3.34 -10 2.68 -10 2 C-6.5980513 -0.09350689 -3.94727588 -0.17942163 0 0 Z " fill="#434343" transform="translate(260,432)"/>
<path d="M0 0 C-0.03298902 2.77407649 -0.10009079 5.54005929 -0.1875 8.3125 C-0.19330078 9.09818359 -0.19910156 9.88386719 -0.20507812 10.69335938 C-0.28969449 12.90278659 -0.42239831 14.86454673 -1 17 C-3.80864726 19.33446006 -6.42882693 20.33867165 -10 21 C-10.84023188 16.64667264 -11.10770995 12.55557481 -11.0625 8.125 C-11.05347656 6.97257812 -11.04445312 5.82015625 -11.03515625 4.6328125 C-11.02355469 3.76398438 -11.01195312 2.89515625 -11 2 C-9.73392393 1.46770674 -8.46189588 0.94955456 -7.1875 0.4375 C-6.47980469 0.14746094 -5.77210938 -0.14257812 -5.04296875 -0.44140625 C-3 -1 -3 -1 0 0 Z " fill="#2A2A2A" transform="translate(256,336)"/>
<path d="M0 0 C0 0.66 0 1.32 0 2 C1.32 2 2.64 2 4 2 C3.7734375 3.84375 3.7734375 3.84375 3 6 C1.0390625 7.34375 1.0390625 7.34375 -1.375 8.5 C-4.89361065 10.19626833 -6.9612321 11.6211074 -9 15 C-9.72481084 18.65274469 -9.72481084 18.65274469 -10 22 C-12.57061106 20.09998313 -13.0489541 18.82702883 -13.9375 15.6875 C-14.0173545 10.97608464 -13.08327936 9.53449097 -10 6 C-3.0389016 0 -3.0389016 0 0 0 Z " fill="#3B3B3B" transform="translate(250,427)"/>
<path d="M0 0 C0 4.95 0 9.9 0 15 C-0.66 15 -1.32 15 -2 15 C-2 15.66 -2 16.32 -2 17 C-4.64738916 18.4606285 -5.89448334 19 -9 19 C-8.9669923 16.39239154 -8.8998852 13.79337154 -8.8125 11.1875 C-8.80669922 10.44951172 -8.80089844 9.71152344 -8.79492188 8.95117188 C-8.70703125 6.79296875 -8.70703125 6.79296875 -8 3 C-5.13343227 0.55986383 -3.76293297 0 0 0 Z " fill="#414141" transform="translate(254,375)"/>
<path d="M0 0 C0 7.59 0 15.18 0 23 C-0.99 23.33 -1.98 23.66 -3 24 C-4.2263757 21.54724859 -4.11415314 19.9494219 -4.09765625 17.2109375 C-4.09443359 16.26992188 -4.09121094 15.32890625 -4.08789062 14.359375 C-4.07951172 13.37453125 -4.07113281 12.3896875 -4.0625 11.375 C-4.05798828 10.38242187 -4.05347656 9.38984375 -4.04882812 8.3671875 C-4.03702145 5.9113984 -4.020554 3.45572896 -4 1 C-2 0 -2 0 0 0 Z " fill="#101010" transform="translate(252,435)"/>
<path d="M0 0 C0 5.28 0 10.56 0 16 C-1.65 15.67 -3.3 15.34 -5 15 C-5 10.38 -5 5.76 -5 1 C-1 0 -1 0 0 0 Z " fill="#0D0D0D" transform="translate(253,408)"/>
<path d="M0 0 C1.98 0.99 3.96 1.98 6 3 C5.5 4.875 5.5 4.875 4 7 C-1.81358743 9.07628123 -7.84651259 9.74322761 -14 9 C-14.99 8.34 -15.98 7.68 -17 7 C-12.05 7 -7.1 7 -2 7 C-1.67 6.01 -1.34 5.02 -1 4 C-0.34 4 0.32 4 1 4 C0.67 2.68 0.34 1.36 0 0 Z " fill="#6F6F6F" transform="translate(341,130)"/>
<path d="M0 0 C0.66 0.33 1.32 0.66 2 1 C0.84701126 4.45896621 -0.26032137 4.90204435 -3.234375 6.75 C-6.52940188 9.0827624 -9.22860428 12.08101516 -12 15 C-12 12 -12 12 -11 9 C-10.34 9 -9.68 9 -9 9 C-9 8.34 -9 7.68 -9 7 C-8.34 7 -7.68 7 -7 7 C-7 6.34 -7 5.68 -7 5 C-5.46875 3.7109375 -5.46875 3.7109375 -3.5 2.375 C-2.8503125 1.92898438 -2.200625 1.48296875 -1.53125 1.0234375 C-0.77328125 0.51683594 -0.77328125 0.51683594 0 0 Z " fill="#5A5A5A" transform="translate(240,362)"/>
<path d="M0 0 C2.97 0.495 2.97 0.495 6 1 C4.02 1.99 4.02 1.99 2 3 C1.67 12.24 1.34 21.48 1 31 C1.66 31.33 2.32 31.66 3 32 C2.01 32 1.02 32 0 32 C0 21.44 0 10.88 0 0 Z " fill="#ADADAC" transform="translate(244,283)"/>
<path d="M0 0 C1.65 0.33 3.3 0.66 5 1 C4.34 4.63 3.68 8.26 3 12 C-0.52844977 8.47155023 -0.64728672 6.84980754 -1 2 C-0.67 1.34 -0.34 0.68 0 0 Z " fill="#5D5D5D" transform="translate(237,437)"/>
<path d="M0 0 C-3.61615852 3.50517667 -6.66285559 3.37476332 -11.5625 3.3125 C-12.23474609 3.31572266 -12.90699219 3.31894531 -13.59960938 3.32226562 C-17.26958778 3.28217649 -18.87242617 3.08504922 -22 1 C-19.27093526 0.83150207 -16.54176829 0.6651397 -13.8125 0.5 C-13.04357422 0.45230469 -12.27464844 0.40460938 -11.48242188 0.35546875 C-7.648496 0.12510411 -3.84309823 -0.0616128 0 0 Z " fill="#797977" transform="translate(232,171)"/>
<path d="M0 0 C3.81684226 1.55500981 6.19195732 4.03595495 9 7 C8.2575 6.814375 7.515 6.62875 6.75 6.4375 C3.97680122 5.99630929 2.64692332 6.31692301 0 7 C-2.25 6.5625 -2.25 6.5625 -4 6 C-3 4 -3 4 0 3 C0 2.01 0 1.02 0 0 Z " fill="#585855" transform="translate(224,156)"/>
<path d="M0 0 C0 0.66 0 1.32 0 2 C0.66 2 1.32 2 2 2 C1.67 2.66 1.34 3.32 1 4 C0.34 4 -0.32 4 -1 4 C-1 3.01 -1 2.02 -1 1 C-1.99 1.33 -2.98 1.66 -4 2 C-4 2.99 -4 3.98 -4 5 C-4.66 5 -5.32 5 -6 5 C-6.33 8.63 -6.66 12.26 -7 16 C-7.33 16 -7.66 16 -8 16 C-8 11.71 -8 7.42 -8 3 C-8.66 2.67 -9.32 2.34 -10 2 C-6.5980513 -0.09350689 -3.94727588 -0.17942163 0 0 Z " fill="#848483" transform="translate(260,432)"/>
<path d="M0 0 C0.66 0.33 1.32 0.66 2 1 C1.43410156 1.26554687 0.86820313 1.53109375 0.28515625 1.8046875 C-0.44832031 2.15789062 -1.18179688 2.51109375 -1.9375 2.875 C-3.03384766 3.39707031 -3.03384766 3.39707031 -4.15234375 3.9296875 C-6.16332459 4.8684977 -6.16332459 4.8684977 -7 7 C-10.63 7 -14.26 7 -18 7 C-15.20206314 5.13470876 -13.30531518 4.38932826 -10.125 3.5 C-7.3162945 2.69751272 -4.70100312 1.87541797 -2 0.75 C-1.34 0.5025 -0.68 0.255 0 0 Z " fill="#606060" transform="translate(112,77)"/>
<path d="M0 0 C-0.639375 0.5775 -1.27875 1.155 -1.9375 1.75 C-3.98223868 3.98062401 -4.58205199 5.07436391 -5 8 C-7.5 6.1875 -7.5 6.1875 -10 4 C-10 3.01 -10 2.02 -10 1 C-6.78548731 -0.60725635 -3.56387464 -0.05748185 0 0 Z " fill="#484848" transform="translate(60,92)"/>
<path d="M0 0 C1.134375 0.020625 2.26875 0.04125 3.4375 0.0625 C-2.51355687 3.39509185 -8.88439497 4.35954158 -15.5625 5.0625 C-14.15705569 3.0421738 -13.04173008 2.15776863 -10.6171875 1.67578125 C-8.60064521 1.45533487 -6.58162323 1.25789902 -4.5625 1.0625 C-3.5625 0.0625 -3.5625 0.0625 0 0 Z " fill="#656565" transform="translate(153.5625,127.9375)"/>
<path d="M0 0 C0 0.66 0 1.32 0 2 C-0.99 2 -1.98 2 -3 2 C-3.2475 2.598125 -3.495 3.19625 -3.75 3.8125 C-5.16370012 6.28647521 -6.65055383 7.43370255 -9 9 C-9.33 8.34 -9.66 7.68 -10 7 C-10.99 7 -11.98 7 -13 7 C-13 6.34 -13 5.68 -13 5 C-12.45730469 4.80664062 -11.91460937 4.61328125 -11.35546875 4.4140625 C-10.64003906 4.15367188 -9.92460937 3.89328125 -9.1875 3.625 C-8.47980469 3.36976562 -7.77210938 3.11453125 -7.04296875 2.8515625 C-0.20183486 0 -0.20183486 0 0 0 Z " fill="#626262" transform="translate(167,99)"/>
<path d="M0 0 C1.07765625 0.01804688 2.1553125 0.03609375 3.265625 0.0546875 C4.49539062 0.08949219 4.49539062 0.08949219 5.75 0.125 C5.75 0.455 5.75 0.785 5.75 1.125 C5.13253906 1.24617188 4.51507813 1.36734375 3.87890625 1.4921875 C-1.8499224 2.62574568 -7.55352707 3.83869966 -13.25 5.125 C-9.19194789 0.66114268 -5.98782458 -0.1301701 0 0 Z " fill="#6F6F6F" transform="translate(250.25,40.875)"/>
<path d="M0 0 C0.33 0.99 0.66 1.98 1 3 C0.34 3 -0.32 3 -1 3 C-1.33 4.32 -1.66 5.64 -2 7 C-4.31 7.66 -6.62 8.32 -9 9 C-9.66 8.34 -10.32 7.68 -11 7 C-8.36 5.68 -5.72 4.36 -3 3 C-3 2.34 -3 1.68 -3 1 C-2.01 0.67 -1.02 0.34 0 0 Z " fill="#646464" transform="translate(149,84)"/>
<path d="M0 0 C0.33 0 0.66 0 1 0 C1.04898438 0.98742187 1.09796875 1.97484375 1.1484375 2.9921875 C1.22320312 4.27351563 1.29796875 5.55484375 1.375 6.875 C1.44460937 8.15117187 1.51421875 9.42734375 1.5859375 10.7421875 C1.67241106 14.08061699 1.67241106 14.08061699 4 16 C2.35 16.66 0.7 17.32 -1 18 C-1.66 16.35 -2.32 14.7 -3 13 C-2.01 13.495 -2.01 13.495 -1 14 C-0.67 9.38 -0.34 4.76 0 0 Z " fill="#737373" transform="translate(247,409)"/>
<path d="M0 0 C0.66 0 1.32 0 2 0 C6.40744316 7.02436254 6.4485551 12.82632933 6 21 C5.67 21 5.34 21 5 21 C4.96132813 19.41058594 4.96132813 19.41058594 4.921875 17.7890625 C4.8656022 16.40099999 4.80825467 15.01298075 4.75 13.625 C4.73582031 12.92632812 4.72164063 12.22765625 4.70703125 11.5078125 C4.63964218 9.22282354 4.63964218 9.22282354 4 6 C2.08611659 4.43516506 2.08611659 4.43516506 0 4 C0 2.68 0 1.36 0 0 Z " fill="#6C6C6C" transform="translate(275,330)"/>
<path d="M0 0 C6.93 0.495 6.93 0.495 14 1 C14 2.32 14 3.64 14 5 C13.01 5.33 12.02 5.66 11 6 C10.67 6.66 10.34 7.32 10 8 C10 6.68 10 5.36 10 4 C10.66 4 11.32 4 12 4 C12 3.34 12 2.68 12 2 C10.046875 2.06510417 8.09375 2.13020833 6.140625 2.1953125 C4 2 4 2 0 0 Z " fill="#7A7A7A" transform="translate(436,91)"/>
<path d="M0 0 C0.33 0.66 0.66 1.32 1 2 C0.34 2 -0.32 2 -1 2 C-1 2.66 -1 3.32 -1 4 C-0.01 4.33 0.98 4.66 2 5 C1.01 5.495 1.01 5.495 0 6 C-2.35981813 5.06421005 -4.69631264 4.06652192 -7 3 C-7 2.34 -7 1.68 -7 1 C-3.375 -1.125 -3.375 -1.125 0 0 Z " fill="#5D5D5D" transform="translate(125,124)"/>
<path d="M0 0 C-1.72681437 0.50806447 -3.45657979 1.00610467 -5.1875 1.5 C-6.63189453 1.91765625 -6.63189453 1.91765625 -8.10546875 2.34375 C-10.85345876 2.96677608 -13.19598416 3.12302812 -16 3 C-15.67 2.01 -15.34 1.02 -15 0 C-13.06325815 -0.19517554 -11.12555991 -0.38087873 -9.1875 -0.5625 C-8.10855469 -0.66691406 -7.02960938 -0.77132812 -5.91796875 -0.87890625 C-3 -1 -3 -1 0 0 Z " fill="#666666" transform="translate(293,212)"/>
<path d="M0 0 C0.33 0 0.66 0 1 0 C1.83378027 6.90846508 1.83378027 6.90846508 -0.453125 9.90234375 C-2.25811231 11.51393956 -3.84336024 12.89628072 -6 14 C-6.99 13.67 -7.98 13.34 -9 13 C-8.43410156 12.56429688 -7.86820313 12.12859375 -7.28515625 11.6796875 C-2.51056427 7.92938682 -2.51056427 7.92938682 0 2.5625 C0 1.716875 0 0.87125 0 0 Z " fill="#7A7A7A" transform="translate(259,413)"/>
<path d="M0 0 C0.66 0.33 1.32 0.66 2 1 C1.34 1.66 0.68 2.32 0 3 C1.65 3.99 3.3 4.98 5 6 C3 7 3 7 1.0546875 6.44140625 C0.33539063 6.15136719 -0.38390625 5.86132812 -1.125 5.5625 C-1.84945313 5.27503906 -2.57390625 4.98757813 -3.3203125 4.69140625 C-3.87460937 4.46324219 -4.42890625 4.23507812 -5 4 C-5 3.34 -5 2.68 -5 2 C-2.625 0.9375 -2.625 0.9375 0 0 Z " fill="#787878" transform="translate(266,256)"/>
<path d="M0 0 C0.66 0 1.32 0 2 0 C1.01 2.97 0.02 5.94 -1 9 C-2.32 9 -3.64 9 -5 9 C-3.35 6.03 -1.7 3.06 0 0 Z " fill="#686868" transform="translate(213,126)"/>
<path d="M0 0 C-1.98 0.66 -3.96 1.32 -6 2 C-5.34 3.32 -4.68 4.64 -4 6 C-6.4375 5.1875 -6.4375 5.1875 -9 4 C-9.33 3.01 -9.66 2.02 -10 1 C-3.71428571 -1.42857143 -3.71428571 -1.42857143 0 0 Z " fill="#6A6A6A" transform="translate(94,112)"/>
<path d="M0 0 C0 4.29 0 8.58 0 13 C-0.66 13 -1.32 13 -2 13 C-2.96070434 10.11788698 -3.10581883 8.30149956 -3.0625 5.3125 C-3.05347656 4.50425781 -3.04445312 3.69601563 -3.03515625 2.86328125 C-3.02355469 2.24839844 -3.01195312 1.63351563 -3 1 C-1 0 -1 0 0 0 Z " fill="#666666" transform="translate(215,80)"/>
<path d="M0 0 C0.66 0.66 1.32 1.32 2 2 C-0.52788007 4.79872437 -2.20411134 6.45773019 -6 7 C-4.60667426 3.63279613 -3.0210714 2.0140476 0 0 Z " fill="#515151" transform="translate(183,110)"/>
<path d="M0 0 C-1.32 1.32 -2.64 2.64 -4 4 C-4 3.34 -4 2.68 -4 2 C-7.3 2.33 -10.6 2.66 -14 3 C-4 -2 -4 -2 0 0 Z " fill="#656565" transform="translate(90,86)"/>
<path d="M0 0 C0 3 0 3 -1.0625 4.625 C-3.87456882 6.62066174 -6.62268141 6.68138504 -10 7 C-8.72485508 4.44971017 -7.59658703 4.06918289 -5 3 C-4.01 3 -3.02 3 -2 3 C-2 2.34 -2 1.68 -2 1 C-1.34 0.67 -0.68 0.34 0 0 Z " fill="#666666" transform="translate(262,351)"/>
<path d="M0 0 C1.32 0.33 2.64 0.66 4 1 C-1.625 5 -1.625 5 -5 5 C-5 4.34 -5 3.68 -5 3 C-5.66 2.67 -6.32 2.34 -7 2 C-2.25 0.875 -2.25 0.875 0 2 C0 1.34 0 0.68 0 0 Z " fill="#727272" transform="translate(288,266)"/>
<path d="M0 0 C0.33 0.66 0.66 1.32 1 2 C1.66 2 2.32 2 3 2 C3.33 1.34 3.66 0.68 4 0 C4 1.98 4 3.96 4 6 C3.01 6.33 2.02 6.66 1 7 C0.67 4.69 0.34 2.38 0 0 Z " fill="#696969" transform="translate(248,452)"/>
<path d="M0 0 C0.99 0.33 1.98 0.66 3 1 C2.67 2.32 2.34 3.64 2 5 C0.68 5.33 -0.64 5.66 -2 6 C-1.125 1.125 -1.125 1.125 0 0 Z " fill="#2F2F30" transform="translate(240,433)"/>
<path d="M0 0 C0.66 0.33 1.32 0.66 2 1 C0.25 4.875 0.25 4.875 -2 6 C-2.65555119 8.52733235 -2.65555119 8.52733235 -3 11 C-3.33 11 -3.66 11 -4 11 C-4.49230769 4.6 -4.49230769 4.6 -2 1.5625 C-1.34 1.046875 -0.68 0.53125 0 0 Z " fill="#747474" transform="translate(270,159)"/>
<path d="M0 0 C0.33 0.66 0.66 1.32 1 2 C-1.25 4.5625 -1.25 4.5625 -4 7 C-5.32 6.67 -6.64 6.34 -8 6 C-5.36 4.02 -2.72 2.04 0 0 Z " fill="#505050" transform="translate(168,123)"/>
<path d="M0 0 C0.66 0.33 1.32 0.66 2 1 C0.71937515 2.7074998 -0.61767557 4.37373596 -2 6 C-2.66 6 -3.32 6 -4 6 C-4 6.99 -4 7.98 -4 9 C-4.66 9 -5.32 9 -6 9 C-4.68775452 5.06326356 -3.08089673 2.77280706 0 0 Z " fill="#717171" transform="translate(238,400)"/>
<path d="M0 0 C3.96 1.98 3.96 1.98 8 4 C8 4.66 8 5.32 8 6 C6.68 6.33 5.36 6.66 4 7 C4 6.34 4 5.68 4 5 C3.34 5 2.68 5 2 5 C2 4.01 2 3.02 2 2 C1.34 2 0.68 2 0 2 C0 1.34 0 0.68 0 0 Z " fill="#6C6C6C" transform="translate(235,310)"/>
<path d="M0 0 C0 0.33 0 0.66 0 1 C-1.58129029 1.22331199 -3.16521089 1.42804644 -4.75 1.625 C-6.07257813 1.79902344 -6.07257813 1.79902344 -7.421875 1.9765625 C-10.22859878 2.00207817 -11.63384866 1.44843844 -14 0 C-9.02936879 -0.91297308 -4.97063121 -0.91297308 0 0 Z " fill="#808080" transform="translate(368,131)"/>
<path d="M0 0 C0.66 0.66 1.32 1.32 2 2 C1.34 2 0.68 2 0 2 C0 3.32 0 4.64 0 6 C-0.66 6 -1.32 6 -2 6 C-2.33 6.66 -2.66 7.32 -3 8 C-3.66 7.67 -4.32 7.34 -5 7 C-5 5 -5 5 -3.625 3.5 C-3.08875 3.005 -2.5525 2.51 -2 2 C-1.34 1.34 -0.68 0.68 0 0 Z " fill="#737373" transform="translate(175,116)"/>
<path d="M0 0 C0.66 0 1.32 0 2 0 C2 0.66 2 1.32 2 2 C2.763125 2.12375 3.52625 2.2475 4.3125 2.375 C7 3 7 3 10 5 C7.24805136 5.76443018 5.51320029 6.1568112 2.75 5.3125 C1 4 1 4 0.25 1.875 C0.1675 1.25625 0.085 0.6375 0 0 Z " fill="#575757" transform="translate(353,63)"/>
<path d="M0 0 C0.99 0.33 1.98 0.66 3 1 C3 1.66 3 2.32 3 3 C3.66 3 4.32 3 5 3 C5.33 4.65 5.66 6.3 6 8 C1.2 4.55384615 1.2 4.55384615 0.1875 1.75 C0.125625 1.1725 0.06375 0.595 0 0 Z " fill="#70706F" transform="translate(196,253)"/>
<path d="M0 0 C-1.9626228 2.04795423 -3.4277307 2.94976638 -6.26953125 3.19921875 C-8.51954383 3.18858877 -10.75385562 3.12958525 -13 3 C-8.48166204 0.66292864 -5.11018582 -0.11355968 0 0 Z " fill="#6D6D6D" transform="translate(235,201)"/>
<path d="M0 0 C0.66 0.33 1.32 0.66 2 1 C1.01 2.485 1.01 2.485 0 4 C1.32 4.66 2.64 5.32 4 6 C1.03 5.505 1.03 5.505 -2 5 C-2.33 4.01 -2.66 3.02 -3 2 C-2.01 1.34 -1.02 0.68 0 0 Z " fill="#818181" transform="translate(156,131)"/>
<path d="M0 0 C0.66 0 1.32 0 2 0 C3.53166168 4.08443115 2.63081652 7.79455657 2 12 C1.67 12 1.34 12 1 12 C0.67 8.04 0.34 4.08 0 0 Z " fill="#616161" transform="translate(285,78)"/>
<path d="M0 0 C-1.625 2.0625 -1.625 2.0625 -4 4 C-7.25 3.75 -7.25 3.75 -10 3 C-6.88378718 -0.11621282 -4.21175599 -0.11383124 0 0 Z " fill="#4A4A4A" transform="translate(303,50)"/>
<path d="M0 0 C0.66 0 1.32 0 2 0 C1.67 2.31 1.34 4.62 1 7 C0.34 7 -0.32 7 -1 7 C-0.67 4.69 -0.34 2.38 0 0 Z " fill="#070707" transform="translate(250,447)"/>
<path d="M0 0 C1.98 0 3.96 0 6 0 C4.71034824 1.37562854 3.37310707 2.70766393 2 4 C1.34 4 0.68 4 0 4 C-0.33 4.66 -0.66 5.32 -1 6 C-0.67 4.02 -0.34 2.04 0 0 Z " fill="#696968" transform="translate(230,285)"/>
<path d="M0 0 C0 0.99 0 1.98 0 3 C-4.75 3.125 -4.75 3.125 -7 2 C-7 1.34 -7 0.68 -7 0 C-4.3333581 -1.33332095 -2.83319697 -0.67102033 0 0 Z M-3 0 C-3.33 0.66 -3.66 1.32 -4 2 C-3.01 2 -2.02 2 -1 2 C-1 1.34 -1 0.68 -1 0 C-1.66 0 -2.32 0 -3 0 Z " fill="#484848" transform="translate(282,160)"/>
<path d="M0 0 C-0.33 0.99 -0.66 1.98 -1 3 C-3.15634036 3 -4.92446352 2.5534764 -7 2 C-5.26578631 -1.46842738 -3.40984787 -1.13661596 0 0 Z " fill="#434343" transform="translate(227,160)"/>
<path d="M0 0 C0.33 0.66 0.66 1.32 1 2 C0.67 2.66 0.34 3.32 0 4 C0.66 4.33 1.32 4.66 2 5 C1.67 5.66 1.34 6.32 1 7 C-0.32 6.67 -1.64 6.34 -3 6 C-3 5.01 -3 4.02 -3 3 C-2.34 3 -1.68 3 -1 3 C-0.67 2.01 -0.34 1.02 0 0 Z " fill="#696968" transform="translate(208,136)"/>
<path d="M0 0 C3.34373475 0.55728913 6.03312999 1.35173889 9 3 C8.34 3.66 7.68 4.32 7 5 C7 4.34 7 3.68 7 3 C5.824375 3.0928125 5.824375 3.0928125 4.625 3.1875 C3.75875 3.125625 2.8925 3.06375 2 3 C1.34 2.01 0.68 1.02 0 0 Z " fill="#696969" transform="translate(338,57)"/>
</svg>
